<svg width="34" height="35" viewBox="0 0 34 35" fill="none" xmlns="http://www.w3.org/2000/svg">
<g clip-path="url(#clip0_448_1074)">
<path d="M24.0833 30.625V27.7083C24.0833 26.1612 23.4863 24.6775 22.4236 23.5835C21.3609 22.4896 19.9196 21.875 18.4167 21.875H7.08333C5.58044 21.875 4.1391 22.4896 3.07639 23.5835C2.01369 24.6775 1.41666 26.1612 1.41666 27.7083V30.625M32.5833 30.625V27.7083C32.5824 26.4159 32.1645 25.1603 31.3953 24.1388C30.626 23.1173 29.549 22.3877 28.3333 22.0646M22.6667 4.56458C23.8856 4.88586 24.966 5.61561 25.7375 6.63879C26.509 7.66197 26.9278 8.92038 26.9278 10.2156C26.9278 11.5109 26.509 12.7693 25.7375 13.7925C24.966 14.8156 23.8856 15.5454 22.6667 15.8667M18.4167 10.2083C18.4167 13.43 15.8796 16.0417 12.75 16.0417C9.62038 16.0417 7.08333 13.43 7.08333 10.2083C7.08333 6.98667 9.62038 4.375 12.75 4.375C15.8796 4.375 18.4167 6.98667 18.4167 10.2083Z" stroke="#C85332" stroke-width="4" stroke-linecap="round" stroke-linejoin="round"/>
</g>
<defs>
<clipPath id="clip0_448_1074">
<rect width="34" height="35" fill="white"/>
</clipPath>
</defs>
</svg>
