<svg width="1280" height="832" viewBox="0 0 1280 832" fill="none" xmlns="http://www.w3.org/2000/svg">
<g clip-path="url(#clip0_565_2248)">
<rect width="1280" height="832" fill="#F6E7CB"/>
<path d="M161.417 426.311C178.629 403.933 212.371 403.933 229.583 426.311L324.557 549.783C346.308 578.061 326.149 619 290.474 619H100.526C64.8506 619 44.6915 578.061 66.4425 549.783L161.417 426.311Z" fill="#415836"/>

<path d="M1214.51 422.188C1231.2 405.942 1257.8 405.942 1274.49 422.188L1395.99 540.435C1423.64 567.35 1404.59 614.25 1366 614.25H1123C1084.41 614.25 1065.36 567.35 1093.01 540.435L1214.51 422.188Z" fill="#415836"/>
<ellipse cx="121.976" cy="220.388" rx="50.9761" ry="43.4664" fill="white"/>
<ellipse cx="161.316" cy="192.382" rx="53.1924" ry="39.3823" fill="white"/>
<ellipse cx="162.978" cy="232.057" rx="54.8547" ry="45.8002" fill="white"/>
<ellipse cx="47.3775" cy="38.7966" rx="47.3775" ry="38.7966" transform="matrix(0.999346 -0.0361491 0.0326071 0.999468 158.546 180.347)" fill="white"/>
<ellipse cx="403.134" cy="102.388" rx="56.1342" ry="43.4664" fill="white"/>
<ellipse cx="446.455" cy="74.3823" rx="58.5748" ry="39.3823" fill="white"/>
<ellipse cx="448.286" cy="114.056" rx="60.4053" ry="45.8002" fill="white"/>
<ellipse cx="52.1656" cy="38.801" rx="52.1656" ry="38.801" transform="matrix(0.999461 -0.0328311 0.0359025 0.999355 443.404 62.3465)" fill="white"/>
<ellipse cx="502.134" cy="94.3875" rx="56.1342" ry="43.4664" fill="white"/>
<ellipse cx="545.455" cy="66.3823" rx="58.5748" ry="39.3823" fill="white"/>
<ellipse cx="547.286" cy="106.056" rx="60.4053" ry="45.8002" fill="white"/>
<ellipse cx="52.1656" cy="38.801" rx="52.1656" ry="38.801" transform="matrix(0.999461 -0.0328311 0.0359025 0.999355 542.404 54.3465)" fill="white"/>
<ellipse cx="898.075" cy="191.465" rx="54.0746" ry="43.5162" fill="white"/>
<ellipse cx="939.806" cy="163.427" rx="56.4257" ry="39.4274" fill="white"/>
<ellipse cx="941.569" cy="203.148" rx="58.189" ry="45.8526" fill="white"/>
<ellipse cx="50.2537" cy="38.8436" rx="50.2537" ry="38.8436" transform="matrix(0.999418 -0.0341192 0.0345473 0.999403 936.867 151.378)" fill="white"/>
<ellipse cx="898.075" cy="191.465" rx="54.0746" ry="43.5162" fill="white"/>
<ellipse cx="939.806" cy="163.427" rx="56.4257" ry="39.4274" fill="white"/>
<ellipse cx="941.569" cy="203.148" rx="58.189" ry="45.8526" fill="white"/>
<ellipse cx="50.2537" cy="38.8436" rx="50.2537" ry="38.8436" transform="matrix(0.999418 -0.0341192 0.0345473 0.999403 936.867 151.378)" fill="white"/>
<ellipse cx="1120.07" cy="62.671" rx="54.0746" ry="36.5537" fill="white"/>
<ellipse cx="1161.81" cy="39.1191" rx="56.4257" ry="33.1191" fill="white"/>
<ellipse cx="1163.57" cy="72.4839" rx="58.189" ry="38.5163" fill="white"/>
<ellipse cx="50.2451" cy="32.6368" rx="50.2451" ry="32.6368" transform="matrix(0.999589 -0.0286651 0.0411174 0.999154 1158.87 28.9976)" fill="white"/>
<ellipse cx="31.0746" cy="50.671" rx="54.0746" ry="36.5537" fill="white"/>
<ellipse cx="72.8055" cy="27.1191" rx="56.4257" ry="33.1191" fill="white"/>
<ellipse cx="74.5688" cy="60.4839" rx="58.189" ry="38.5163" fill="white"/>
<ellipse cx="50.2451" cy="32.6368" rx="50.2451" ry="32.6368" transform="matrix(0.999589 -0.0286651 0.0411174 0.999154 69.8668 16.9976)" fill="white"/>
<path d="M283.984 456.301C300.906 438.678 329.094 438.678 346.016 456.301L450.36 564.967C476.603 592.298 457.234 637.75 419.344 637.75H210.656C172.766 637.75 153.397 592.298 179.64 564.968L283.984 456.301Z" fill="#58754A"/>
<path d="M29.0598 442.044C45.7404 425.863 72.2596 425.863 88.9402 442.044L227.942 576.886C255.666 603.78 236.627 650.75 198.002 650.75H-80.002C-118.627 650.75 -137.666 603.78 -109.942 576.886L29.0598 442.044Z" fill="#749862"/>
<path d="M952.884 439.791C969.341 424.648 994.659 424.648 1011.12 439.791L1108.73 529.607C1137.56 556.134 1118.79 604.25 1079.61 604.25H884.39C845.213 604.25 826.445 556.135 855.274 529.607L952.884 439.791Z" fill="#58754A"/>
<path d="M464.199 779.727C464.199 778.989 464.379 778.316 464.739 777.71C465.098 777.104 465.581 776.621 466.188 776.261C466.794 775.902 467.466 775.722 468.205 775.722C468.848 775.722 469.445 775.864 469.994 776.148C470.544 776.432 470.996 776.818 471.351 777.305C471.706 777.793 471.919 778.342 471.99 778.953H469.881C469.81 778.598 469.613 778.309 469.291 778.087C468.974 777.859 468.612 777.746 468.205 777.746C467.84 777.746 467.506 777.833 467.203 778.009C466.905 778.184 466.666 778.423 466.486 778.726C466.306 779.024 466.216 779.356 466.216 779.72C466.216 780.085 466.306 780.419 466.486 780.722C466.666 781.02 466.905 781.259 467.203 781.439C467.506 781.619 467.84 781.709 468.205 781.709C468.612 781.709 468.964 781.598 469.263 781.375C469.561 781.148 469.748 780.857 469.824 780.501H471.933C471.862 781.112 471.654 781.661 471.308 782.149C470.963 782.637 470.52 783.023 469.98 783.307C469.44 783.591 468.848 783.733 468.205 783.733C467.466 783.733 466.794 783.553 466.188 783.193C465.581 782.833 465.098 782.35 464.739 781.744C464.379 781.138 464.199 780.466 464.199 779.727ZM468.148 787.227C467.116 787.227 466.145 787.033 465.236 786.645C464.331 786.257 463.534 785.719 462.842 785.033C462.156 784.341 461.616 783.544 461.223 782.639C460.835 781.735 460.643 780.764 460.648 779.727C460.652 778.69 460.849 777.72 461.237 776.815C461.63 775.911 462.17 775.116 462.857 774.429C463.543 773.738 464.339 773.198 465.243 772.81C466.147 772.421 467.116 772.227 468.148 772.227C469.185 772.227 470.155 772.421 471.06 772.81C471.969 773.198 472.764 773.738 473.446 774.429C474.133 775.116 474.67 775.911 475.058 776.815C475.446 777.72 475.643 778.69 475.648 779.727C475.652 780.764 475.461 781.735 475.072 782.639C474.684 783.544 474.147 784.341 473.46 785.033C472.774 785.719 471.976 786.257 471.067 786.645C470.158 787.033 469.185 787.227 468.148 787.227ZM468.148 784.862C468.863 784.862 469.53 784.73 470.151 784.464C470.776 784.199 471.322 783.832 471.791 783.364C472.26 782.89 472.627 782.346 472.892 781.73C473.157 781.11 473.287 780.445 473.283 779.734C473.283 779.019 473.148 778.352 472.878 777.732C472.613 777.107 472.246 776.56 471.777 776.091C471.308 775.622 470.764 775.255 470.143 774.99C469.523 774.725 468.858 774.592 468.148 774.592C467.442 774.592 466.779 774.725 466.159 774.99C465.544 775.255 464.999 775.625 464.526 776.098C464.057 776.567 463.688 777.114 463.418 777.739C463.148 778.359 463.013 779.024 463.013 779.734C463.008 780.44 463.138 781.103 463.403 781.723C463.673 782.339 464.043 782.883 464.511 783.357C464.985 783.825 465.532 784.195 466.152 784.464C466.772 784.73 467.438 784.862 468.148 784.862ZM478.48 787V784.784L483.657 779.99C484.098 779.564 484.467 779.18 484.765 778.839C485.068 778.499 485.298 778.165 485.454 777.838C485.61 777.507 485.689 777.149 485.689 776.766C485.689 776.339 485.592 775.973 485.397 775.665C485.203 775.352 484.938 775.113 484.602 774.947C484.266 774.777 483.885 774.692 483.458 774.692C483.013 774.692 482.625 774.782 482.294 774.962C481.962 775.142 481.707 775.4 481.527 775.736C481.347 776.072 481.257 776.472 481.257 776.936H478.338C478.338 775.984 478.553 775.158 478.984 774.457C479.415 773.757 480.019 773.214 480.795 772.831C481.572 772.447 482.467 772.256 483.48 772.256C484.521 772.256 485.428 772.44 486.2 772.81C486.976 773.174 487.58 773.681 488.011 774.33C488.442 774.978 488.657 775.722 488.657 776.56C488.657 777.109 488.548 777.651 488.331 778.186C488.118 778.721 487.736 779.315 487.187 779.969C486.638 780.617 485.864 781.396 484.865 782.305L482.741 784.386V784.486H488.849V787H478.48ZM496.781 787.32C495.559 787.315 494.508 787.014 493.627 786.418C492.751 785.821 492.076 784.957 491.603 783.825C491.134 782.694 490.902 781.332 490.907 779.741C490.907 778.155 491.141 776.804 491.61 775.686C492.084 774.569 492.758 773.719 493.634 773.136C494.515 772.549 495.564 772.256 496.781 772.256C497.997 772.256 499.044 772.549 499.92 773.136C500.8 773.723 501.478 774.576 501.951 775.693C502.424 776.806 502.659 778.155 502.654 779.741C502.654 781.337 502.417 782.701 501.944 783.832C501.475 784.964 500.803 785.828 499.927 786.425C499.051 787.021 498.002 787.32 496.781 787.32ZM496.781 784.77C497.614 784.77 498.279 784.351 498.776 783.513C499.273 782.675 499.52 781.418 499.515 779.741C499.515 778.638 499.401 777.72 499.174 776.986C498.951 776.252 498.634 775.7 498.222 775.331C497.815 774.962 497.335 774.777 496.781 774.777C495.952 774.777 495.289 775.191 494.792 776.02C494.295 776.848 494.044 778.089 494.039 779.741C494.039 780.859 494.15 781.792 494.373 782.54C494.6 783.283 494.92 783.842 495.332 784.216C495.744 784.585 496.227 784.77 496.781 784.77ZM504.847 787V784.784L510.025 779.99C510.465 779.564 510.834 779.18 511.132 778.839C511.435 778.499 511.665 778.165 511.821 777.838C511.978 777.507 512.056 777.149 512.056 776.766C512.056 776.339 511.959 775.973 511.765 775.665C511.57 775.352 511.305 775.113 510.969 774.947C510.633 774.777 510.252 774.692 509.826 774.692C509.381 774.692 508.992 774.782 508.661 774.962C508.329 775.142 508.074 775.4 507.894 775.736C507.714 776.072 507.624 776.472 507.624 776.936H504.705C504.705 775.984 504.92 775.158 505.351 774.457C505.782 773.757 506.386 773.214 507.162 772.831C507.939 772.447 508.834 772.256 509.847 772.256C510.889 772.256 511.795 772.44 512.567 772.81C513.344 773.174 513.947 773.681 514.378 774.33C514.809 774.978 515.025 775.722 515.025 776.56C515.025 777.109 514.916 777.651 514.698 778.186C514.485 778.721 514.104 779.315 513.554 779.969C513.005 780.617 512.231 781.396 511.232 782.305L509.108 784.386V784.486H515.216V787H504.847ZM522.757 787.199C521.753 787.199 520.858 787.014 520.072 786.645C519.291 786.276 518.671 785.767 518.212 785.118C517.752 784.469 517.513 783.726 517.494 782.888H520.477C520.51 783.451 520.747 783.908 521.188 784.259C521.628 784.609 522.151 784.784 522.757 784.784C523.24 784.784 523.666 784.678 524.036 784.464C524.41 784.247 524.701 783.946 524.909 783.562C525.122 783.174 525.229 782.729 525.229 782.227C525.229 781.716 525.12 781.266 524.902 780.878C524.689 780.49 524.393 780.187 524.014 779.969C523.635 779.751 523.202 779.64 522.714 779.635C522.288 779.635 521.874 779.723 521.472 779.898C521.074 780.073 520.764 780.312 520.541 780.615L517.807 780.125L518.496 772.455H527.388V774.969H521.031L520.655 778.612H520.74C520.996 778.252 521.382 777.954 521.898 777.717C522.414 777.481 522.991 777.362 523.631 777.362C524.507 777.362 525.288 777.568 525.974 777.98C526.661 778.392 527.203 778.958 527.601 779.678C527.999 780.393 528.195 781.216 528.19 782.149C528.195 783.129 527.968 784 527.509 784.763C527.054 785.52 526.417 786.117 525.598 786.553C524.784 786.983 523.837 787.199 522.757 787.199ZM535.049 772.455H538.842L542.848 782.227H543.018L547.024 772.455H550.816V787H547.833V777.533H547.713L543.949 786.929H541.917L538.153 777.497H538.032V787H535.049V772.455ZM558.222 787.213C557.119 787.213 556.165 786.979 555.36 786.51C554.56 786.036 553.942 785.378 553.506 784.536C553.071 783.688 552.853 782.705 552.853 781.588C552.853 780.461 553.071 779.476 553.506 778.634C553.942 777.786 554.56 777.128 555.36 776.659C556.165 776.186 557.119 775.949 558.222 775.949C559.326 775.949 560.277 776.186 561.077 776.659C561.882 777.128 562.503 777.786 562.938 778.634C563.374 779.476 563.592 780.461 563.592 781.588C563.592 782.705 563.374 783.688 562.938 784.536C562.503 785.378 561.882 786.036 561.077 786.51C560.277 786.979 559.326 787.213 558.222 787.213ZM558.237 784.869C558.738 784.869 559.157 784.727 559.494 784.443C559.83 784.154 560.083 783.761 560.254 783.264C560.429 782.767 560.516 782.201 560.516 781.567C560.516 780.932 560.429 780.366 560.254 779.869C560.083 779.372 559.83 778.979 559.494 778.69C559.157 778.402 558.738 778.257 558.237 778.257C557.73 778.257 557.304 778.402 556.958 778.69C556.617 778.979 556.359 779.372 556.184 779.869C556.013 780.366 555.928 780.932 555.928 781.567C555.928 782.201 556.013 782.767 556.184 783.264C556.359 783.761 556.617 784.154 556.958 784.443C557.304 784.727 557.73 784.869 558.237 784.869ZM571.362 776.091V778.364H564.792V776.091H571.362ZM566.283 773.477H569.309V783.648C569.309 783.927 569.352 784.145 569.437 784.301C569.522 784.453 569.64 784.559 569.792 784.621C569.948 784.682 570.128 784.713 570.332 784.713C570.474 784.713 570.616 784.701 570.758 784.678C570.9 784.649 571.009 784.628 571.085 784.614L571.56 786.865C571.409 786.912 571.196 786.967 570.921 787.028C570.647 787.095 570.313 787.135 569.92 787.149C569.191 787.178 568.551 787.08 568.002 786.858C567.458 786.635 567.034 786.29 566.731 785.821C566.428 785.352 566.279 784.76 566.283 784.045V773.477ZM573.332 787V776.091H576.358V787H573.332ZM574.852 774.685C574.402 774.685 574.017 774.536 573.695 774.237C573.377 773.934 573.219 773.572 573.219 773.151C573.219 772.734 573.377 772.376 573.695 772.078C574.017 771.775 574.402 771.624 574.852 771.624C575.302 771.624 575.686 771.775 576.003 772.078C576.325 772.376 576.486 772.734 576.486 773.151C576.486 773.572 576.325 773.934 576.003 774.237C575.686 774.536 575.302 774.685 574.852 774.685ZM583.711 787.213C582.607 787.213 581.653 786.979 580.848 786.51C580.048 786.036 579.43 785.378 578.995 784.536C578.559 783.688 578.341 782.705 578.341 781.588C578.341 780.461 578.559 779.476 578.995 778.634C579.43 777.786 580.048 777.128 580.848 776.659C581.653 776.186 582.607 775.949 583.711 775.949C584.814 775.949 585.766 776.186 586.566 776.659C587.371 777.128 587.991 777.786 588.426 778.634C588.862 779.476 589.08 780.461 589.08 781.588C589.08 782.705 588.862 783.688 588.426 784.536C587.991 785.378 587.371 786.036 586.566 786.51C585.766 786.979 584.814 787.213 583.711 787.213ZM583.725 784.869C584.227 784.869 584.646 784.727 584.982 784.443C585.318 784.154 585.571 783.761 585.742 783.264C585.917 782.767 586.005 782.201 586.005 781.567C586.005 780.932 585.917 780.366 585.742 779.869C585.571 779.372 585.318 778.979 584.982 778.69C584.646 778.402 584.227 778.257 583.725 778.257C583.218 778.257 582.792 778.402 582.446 778.69C582.105 778.979 581.847 779.372 581.672 779.869C581.502 780.366 581.417 780.932 581.417 781.567C581.417 782.201 581.502 782.767 581.672 783.264C581.847 783.761 582.105 784.154 582.446 784.443C582.792 784.727 583.218 784.869 583.725 784.869ZM594.073 780.693V787H591.047V776.091H593.931V778.016H594.059C594.3 777.381 594.705 776.879 595.273 776.51C595.841 776.136 596.53 775.949 597.34 775.949C598.097 775.949 598.758 776.115 599.321 776.446C599.885 776.777 600.323 777.251 600.635 777.866C600.948 778.477 601.104 779.206 601.104 780.054V787H598.078V780.594C598.083 779.926 597.913 779.405 597.567 779.031C597.221 778.652 596.746 778.463 596.14 778.463C595.732 778.463 595.373 778.551 595.06 778.726C594.752 778.901 594.511 779.157 594.336 779.493C594.165 779.824 594.078 780.224 594.073 780.693ZM603.545 787V772.455H606.621V784.464H612.857V787H603.545ZM617.947 787.206C617.251 787.206 616.631 787.085 616.086 786.844C615.542 786.598 615.111 786.235 614.794 785.757C614.481 785.274 614.325 784.673 614.325 783.953C614.325 783.347 614.436 782.838 614.659 782.426C614.881 782.014 615.184 781.683 615.568 781.432C615.951 781.181 616.387 780.991 616.875 780.864C617.367 780.736 617.883 780.646 618.423 780.594C619.057 780.527 619.569 780.466 619.957 780.409C620.345 780.348 620.627 780.258 620.802 780.139C620.977 780.021 621.065 779.846 621.065 779.614V779.571C621.065 779.121 620.923 778.773 620.639 778.527C620.359 778.281 619.962 778.158 619.446 778.158C618.901 778.158 618.468 778.278 618.146 778.52C617.824 778.757 617.611 779.055 617.507 779.415L614.708 779.188C614.85 778.525 615.13 777.952 615.547 777.469C615.963 776.981 616.501 776.607 617.159 776.347C617.822 776.081 618.589 775.949 619.46 775.949C620.066 775.949 620.646 776.02 621.2 776.162C621.759 776.304 622.253 776.524 622.684 776.822C623.12 777.121 623.463 777.504 623.714 777.973C623.965 778.437 624.091 778.993 624.091 779.642V787H621.221V785.487H621.136C620.961 785.828 620.726 786.129 620.433 786.389C620.139 786.645 619.787 786.846 619.375 786.993C618.963 787.135 618.487 787.206 617.947 787.206ZM618.814 785.118C619.259 785.118 619.652 785.03 619.993 784.855C620.333 784.675 620.601 784.434 620.795 784.131C620.989 783.828 621.086 783.484 621.086 783.101V781.943C620.992 782.005 620.861 782.062 620.696 782.114C620.535 782.161 620.352 782.206 620.149 782.249C619.945 782.286 619.742 782.322 619.538 782.355C619.334 782.384 619.15 782.41 618.984 782.433C618.629 782.485 618.319 782.568 618.054 782.682C617.788 782.795 617.583 782.949 617.436 783.143C617.289 783.333 617.216 783.57 617.216 783.854C617.216 784.266 617.365 784.58 617.663 784.798C617.966 785.011 618.35 785.118 618.814 785.118ZM626.495 787V772.455H629.52V777.923H629.613C629.745 777.63 629.937 777.331 630.188 777.028C630.444 776.721 630.775 776.465 631.182 776.261C631.594 776.053 632.105 775.949 632.716 775.949C633.512 775.949 634.246 776.157 634.918 776.574C635.59 776.986 636.128 777.608 636.53 778.442C636.933 779.27 637.134 780.31 637.134 781.56C637.134 782.777 636.937 783.804 636.544 784.642C636.156 785.475 635.626 786.107 634.953 786.538C634.286 786.964 633.538 787.178 632.709 787.178C632.122 787.178 631.623 787.08 631.211 786.886C630.803 786.692 630.47 786.448 630.209 786.155C629.949 785.857 629.75 785.556 629.613 785.253H629.478V787H626.495ZM629.456 781.545C629.456 782.194 629.546 782.76 629.726 783.243C629.906 783.726 630.167 784.102 630.507 784.372C630.848 784.637 631.263 784.77 631.75 784.77C632.243 784.77 632.659 784.635 633 784.365C633.341 784.09 633.599 783.712 633.775 783.229C633.954 782.741 634.044 782.18 634.044 781.545C634.044 780.916 633.957 780.362 633.782 779.884C633.606 779.405 633.348 779.031 633.007 778.761C632.667 778.491 632.248 778.357 631.75 778.357C631.258 778.357 630.841 778.487 630.5 778.747C630.164 779.008 629.906 779.377 629.726 779.855C629.546 780.333 629.456 780.897 629.456 781.545ZM644.932 787H643.086L648.426 772.455H650.245L655.586 787H653.739L649.392 774.756H649.279L644.932 787ZM645.614 781.318H653.057V782.881H645.614V781.318ZM659.3 772.455V787H657.624V772.455H659.3ZM664.046 772.455V787H662.37V772.455H664.046ZM672.741 787V776.091H674.36V777.739H674.474C674.673 777.199 675.033 776.761 675.554 776.425C676.074 776.089 676.662 775.92 677.315 775.92C677.438 775.92 677.592 775.923 677.777 775.928C677.961 775.932 678.101 775.939 678.196 775.949V777.653C678.139 777.639 678.009 777.618 677.805 777.589C677.606 777.556 677.395 777.54 677.173 777.54C676.643 777.54 676.169 777.651 675.752 777.874C675.341 778.091 675.014 778.394 674.772 778.783C674.536 779.166 674.417 779.604 674.417 780.097V787H672.741ZM680.183 787V776.091H681.859V787H680.183ZM681.035 774.273C680.708 774.273 680.426 774.161 680.19 773.939C679.958 773.716 679.842 773.449 679.842 773.136C679.842 772.824 679.958 772.556 680.19 772.334C680.426 772.111 680.708 772 681.035 772C681.362 772 681.641 772.111 681.873 772.334C682.11 772.556 682.228 772.824 682.228 773.136C682.228 773.449 682.11 773.716 681.873 773.939C681.641 774.161 681.362 774.273 681.035 774.273ZM689.332 791.318C688.522 791.318 687.826 791.214 687.244 791.006C686.662 790.802 686.176 790.532 685.788 790.196C685.404 789.865 685.099 789.509 684.872 789.131L686.207 788.193C686.359 788.392 686.55 788.619 686.782 788.875C687.014 789.135 687.332 789.36 687.734 789.55C688.141 789.744 688.674 789.841 689.332 789.841C690.213 789.841 690.94 789.628 691.512 789.202C692.085 788.776 692.372 788.108 692.372 787.199V784.983H692.23C692.107 785.182 691.931 785.428 691.704 785.722C691.482 786.01 691.16 786.268 690.738 786.496C690.322 786.718 689.758 786.83 689.048 786.83C688.167 786.83 687.377 786.621 686.676 786.205C685.98 785.788 685.428 785.182 685.021 784.386C684.618 783.591 684.417 782.625 684.417 781.489C684.417 780.371 684.614 779.398 685.007 778.57C685.4 777.736 685.947 777.092 686.647 776.638C687.348 776.179 688.158 775.949 689.076 775.949C689.787 775.949 690.35 776.067 690.767 776.304C691.188 776.536 691.51 776.801 691.733 777.099C691.96 777.393 692.135 777.634 692.258 777.824H692.429V776.091H694.048V787.312C694.048 788.25 693.835 789.012 693.409 789.599C692.987 790.191 692.419 790.625 691.704 790.899C690.994 791.179 690.203 791.318 689.332 791.318ZM689.275 785.324C689.948 785.324 690.516 785.17 690.98 784.862C691.444 784.554 691.797 784.112 692.038 783.534C692.279 782.956 692.4 782.265 692.4 781.46C692.4 780.674 692.282 779.981 692.045 779.379C691.808 778.778 691.458 778.307 690.994 777.966C690.53 777.625 689.957 777.455 689.275 777.455C688.565 777.455 687.973 777.634 687.5 777.994C687.031 778.354 686.678 778.837 686.441 779.443C686.209 780.049 686.093 780.722 686.093 781.46C686.093 782.218 686.212 782.888 686.449 783.47C686.69 784.048 687.045 784.502 687.514 784.834C687.987 785.161 688.574 785.324 689.275 785.324ZM698.792 780.438V787H697.116V772.455H698.792V777.795H698.934C699.19 777.232 699.574 776.785 700.085 776.453C700.601 776.117 701.288 775.949 702.145 775.949C702.888 775.949 703.539 776.098 704.098 776.396C704.656 776.69 705.09 777.142 705.397 777.753C705.71 778.359 705.866 779.131 705.866 780.068V787H704.19V780.182C704.19 779.315 703.965 778.645 703.515 778.172C703.07 777.694 702.452 777.455 701.662 777.455C701.112 777.455 700.62 777.571 700.184 777.803C699.753 778.035 699.413 778.373 699.162 778.818C698.915 779.263 698.792 779.803 698.792 780.438ZM713.677 776.091V777.511H708.023V776.091H713.677ZM709.671 773.477H711.347V783.875C711.347 784.348 711.416 784.704 711.553 784.94C711.695 785.172 711.875 785.329 712.093 785.409C712.316 785.485 712.55 785.523 712.796 785.523C712.981 785.523 713.132 785.513 713.251 785.494C713.369 785.471 713.464 785.452 713.535 785.438L713.876 786.943C713.762 786.986 713.603 787.028 713.4 787.071C713.196 787.118 712.938 787.142 712.626 787.142C712.152 787.142 711.688 787.04 711.234 786.837C710.784 786.633 710.41 786.323 710.112 785.906C709.818 785.49 709.671 784.964 709.671 784.33V773.477ZM723.73 778.534L722.224 778.96C722.13 778.709 721.99 778.465 721.805 778.229C721.625 777.987 721.379 777.788 721.067 777.632C720.754 777.476 720.354 777.398 719.866 777.398C719.199 777.398 718.643 777.552 718.197 777.859C717.757 778.162 717.537 778.548 717.537 779.017C717.537 779.434 717.688 779.763 717.991 780.004C718.295 780.246 718.768 780.447 719.412 780.608L721.031 781.006C722.007 781.242 722.733 781.605 723.212 782.092C723.69 782.575 723.929 783.198 723.929 783.96C723.929 784.585 723.749 785.144 723.389 785.636C723.034 786.129 722.537 786.517 721.898 786.801C721.259 787.085 720.515 787.227 719.668 787.227C718.555 787.227 717.634 786.986 716.905 786.503C716.176 786.02 715.714 785.314 715.52 784.386L717.111 783.989C717.262 784.576 717.549 785.016 717.97 785.31C718.396 785.603 718.953 785.75 719.639 785.75C720.42 785.75 721.041 785.584 721.5 785.253C721.964 784.917 722.196 784.514 722.196 784.045C722.196 783.667 722.063 783.349 721.798 783.094C721.533 782.833 721.126 782.639 720.577 782.511L718.759 782.085C717.759 781.848 717.026 781.482 716.557 780.984C716.093 780.482 715.861 779.855 715.861 779.102C715.861 778.487 716.034 777.942 716.379 777.469C716.73 776.995 717.205 776.624 717.807 776.354C718.413 776.084 719.099 775.949 719.866 775.949C720.946 775.949 721.794 776.186 722.409 776.659C723.029 777.133 723.47 777.758 723.73 778.534ZM732.077 787V776.091H733.696V777.739H733.81C734.009 777.199 734.369 776.761 734.89 776.425C735.41 776.089 735.998 775.92 736.651 775.92C736.774 775.92 736.928 775.923 737.113 775.928C737.297 775.932 737.437 775.939 737.532 775.949V777.653C737.475 777.639 737.345 777.618 737.141 777.589C736.942 777.556 736.731 777.54 736.509 777.54C735.979 777.54 735.505 777.651 735.088 777.874C734.676 778.091 734.35 778.394 734.108 778.783C733.872 779.166 733.753 779.604 733.753 780.097V787H732.077ZM743.76 787.227C742.709 787.227 741.802 786.995 741.04 786.531C740.283 786.062 739.698 785.409 739.286 784.571C738.879 783.728 738.675 782.748 738.675 781.631C738.675 780.513 738.879 779.528 739.286 778.676C739.698 777.819 740.271 777.152 741.005 776.673C741.743 776.19 742.605 775.949 743.59 775.949C744.158 775.949 744.719 776.044 745.273 776.233C745.827 776.422 746.331 776.73 746.786 777.156C747.24 777.578 747.603 778.136 747.873 778.832C748.142 779.528 748.277 780.385 748.277 781.403V782.114H739.868V780.665H746.573C746.573 780.049 746.45 779.5 746.203 779.017C745.962 778.534 745.616 778.153 745.167 777.874C744.721 777.594 744.196 777.455 743.59 777.455C742.922 777.455 742.345 777.62 741.857 777.952C741.374 778.278 741.002 778.705 740.742 779.23C740.481 779.756 740.351 780.319 740.351 780.92V781.886C740.351 782.71 740.493 783.409 740.777 783.982C741.066 784.55 741.466 784.983 741.978 785.281C742.489 785.575 743.083 785.722 743.76 785.722C744.201 785.722 744.598 785.66 744.953 785.537C745.313 785.409 745.623 785.22 745.884 784.969C746.144 784.713 746.346 784.396 746.488 784.017L748.107 784.472C747.936 785.021 747.65 785.504 747.248 785.92C746.845 786.332 746.348 786.654 745.756 786.886C745.164 787.114 744.499 787.227 743.76 787.227ZM758.554 778.534L757.049 778.96C756.954 778.709 756.814 778.465 756.63 778.229C756.45 777.987 756.203 777.788 755.891 777.632C755.578 777.476 755.178 777.398 754.691 777.398C754.023 777.398 753.467 777.552 753.022 777.859C752.581 778.162 752.361 778.548 752.361 779.017C752.361 779.434 752.513 779.763 752.816 780.004C753.119 780.246 753.592 780.447 754.236 780.608L755.855 781.006C756.831 781.242 757.558 781.605 758.036 782.092C758.514 782.575 758.753 783.198 758.753 783.96C758.753 784.585 758.573 785.144 758.213 785.636C757.858 786.129 757.361 786.517 756.722 786.801C756.083 787.085 755.339 787.227 754.492 787.227C753.379 787.227 752.458 786.986 751.729 786.503C751 786.02 750.538 785.314 750.344 784.386L751.935 783.989C752.087 784.576 752.373 785.016 752.794 785.31C753.221 785.603 753.777 785.75 754.463 785.75C755.245 785.75 755.865 785.584 756.324 785.253C756.788 784.917 757.02 784.514 757.02 784.045C757.02 783.667 756.888 783.349 756.623 783.094C756.357 782.833 755.95 782.639 755.401 782.511L753.583 782.085C752.584 781.848 751.85 781.482 751.381 780.984C750.917 780.482 750.685 779.855 750.685 779.102C750.685 778.487 750.858 777.942 751.203 777.469C751.554 776.995 752.03 776.624 752.631 776.354C753.237 776.084 753.924 775.949 754.691 775.949C755.77 775.949 756.618 776.186 757.233 776.659C757.854 777.133 758.294 777.758 758.554 778.534ZM765.85 787.227C764.799 787.227 763.892 786.995 763.13 786.531C762.372 786.062 761.788 785.409 761.376 784.571C760.969 783.728 760.765 782.748 760.765 781.631C760.765 780.513 760.969 779.528 761.376 778.676C761.788 777.819 762.361 777.152 763.094 776.673C763.833 776.19 764.695 775.949 765.68 775.949C766.248 775.949 766.809 776.044 767.363 776.233C767.917 776.422 768.421 776.73 768.876 777.156C769.33 777.578 769.692 778.136 769.962 778.832C770.232 779.528 770.367 780.385 770.367 781.403V782.114H761.958V780.665H768.663C768.663 780.049 768.54 779.5 768.293 779.017C768.052 778.534 767.706 778.153 767.256 777.874C766.811 777.594 766.286 777.455 765.68 777.455C765.012 777.455 764.434 777.62 763.947 777.952C763.464 778.278 763.092 778.705 762.832 779.23C762.571 779.756 762.441 780.319 762.441 780.92V781.886C762.441 782.71 762.583 783.409 762.867 783.982C763.156 784.55 763.556 784.983 764.067 785.281C764.579 785.575 765.173 785.722 765.85 785.722C766.29 785.722 766.688 785.66 767.043 785.537C767.403 785.409 767.713 785.22 767.974 784.969C768.234 784.713 768.435 784.396 768.577 784.017L770.197 784.472C770.026 785.021 769.74 785.504 769.337 785.92C768.935 786.332 768.438 786.654 767.846 786.886C767.254 787.114 766.589 787.227 765.85 787.227ZM772.917 787V776.091H774.536V777.739H774.65C774.849 777.199 775.209 776.761 775.729 776.425C776.25 776.089 776.837 775.92 777.491 775.92C777.614 775.92 777.768 775.923 777.952 775.928C778.137 775.932 778.277 775.939 778.371 775.949V777.653C778.315 777.639 778.184 777.618 777.981 777.589C777.782 777.556 777.571 777.54 777.349 777.54C776.818 777.54 776.345 777.651 775.928 777.874C775.516 778.091 775.19 778.394 774.948 778.783C774.711 779.166 774.593 779.604 774.593 780.097V787H772.917ZM789.611 776.091L785.577 787H783.872L779.838 776.091H781.656L784.668 784.784H784.781L787.793 776.091H789.611ZM796.006 787.227C794.955 787.227 794.049 786.995 793.286 786.531C792.529 786.062 791.944 785.409 791.532 784.571C791.125 783.728 790.921 782.748 790.921 781.631C790.921 780.513 791.125 779.528 791.532 778.676C791.944 777.819 792.517 777.152 793.251 776.673C793.989 776.19 794.851 775.949 795.836 775.949C796.404 775.949 796.965 776.044 797.519 776.233C798.073 776.422 798.577 776.73 799.032 777.156C799.487 777.578 799.849 778.136 800.119 778.832C800.388 779.528 800.523 780.385 800.523 781.403V782.114H792.114V780.665H798.819C798.819 780.049 798.696 779.5 798.45 779.017C798.208 778.534 797.862 778.153 797.413 777.874C796.968 777.594 796.442 777.455 795.836 777.455C795.168 777.455 794.591 777.62 794.103 777.952C793.62 778.278 793.248 778.705 792.988 779.23C792.728 779.756 792.597 780.319 792.597 780.92V781.886C792.597 782.71 792.739 783.409 793.023 783.982C793.312 784.55 793.712 784.983 794.224 785.281C794.735 785.575 795.329 785.722 796.006 785.722C796.447 785.722 796.844 785.66 797.2 785.537C797.559 785.409 797.87 785.22 798.13 784.969C798.39 784.713 798.592 784.396 798.734 784.017L800.353 784.472C800.183 785.021 799.896 785.504 799.494 785.92C799.091 786.332 798.594 786.654 798.002 786.886C797.41 787.114 796.745 787.227 796.006 787.227ZM807.192 787.227C806.283 787.227 805.481 786.998 804.785 786.538C804.089 786.074 803.544 785.421 803.151 784.578C802.758 783.731 802.562 782.729 802.562 781.574C802.562 780.428 802.758 779.434 803.151 778.591C803.544 777.748 804.091 777.097 804.792 776.638C805.493 776.179 806.302 775.949 807.221 775.949C807.931 775.949 808.492 776.067 808.904 776.304C809.321 776.536 809.638 776.801 809.856 777.099C810.078 777.393 810.251 777.634 810.374 777.824H810.516V772.455H812.192V787H810.573V785.324H810.374C810.251 785.523 810.076 785.774 809.849 786.077C809.621 786.375 809.297 786.643 808.876 786.879C808.454 787.111 807.893 787.227 807.192 787.227ZM807.42 785.722C808.092 785.722 808.66 785.546 809.124 785.196C809.588 784.841 809.941 784.351 810.183 783.726C810.424 783.096 810.545 782.369 810.545 781.545C810.545 780.731 810.426 780.018 810.19 779.408C809.953 778.792 809.603 778.314 809.138 777.973C808.674 777.627 808.102 777.455 807.42 777.455C806.71 777.455 806.118 777.637 805.644 778.001C805.175 778.361 804.823 778.851 804.586 779.472C804.354 780.087 804.238 780.778 804.238 781.545C804.238 782.322 804.356 783.027 804.593 783.662C804.835 784.292 805.19 784.794 805.658 785.168C806.132 785.537 806.719 785.722 807.42 785.722Z" fill="#FAF1E1"/>
<path d="M1078.3 470.225C1094.13 457.292 1116.87 457.292 1132.7 470.225L1248.96 565.2C1280.27 590.776 1262.18 641.5 1221.76 641.5H989.244C948.817 641.5 930.732 590.776 962.039 565.2L1078.3 470.225Z" fill="#749862"/>
<path d="M-1 582H1288V725H-1V582Z" fill="url(#paint0_linear_565_2248)"/>
<path d="M48 55.25V52.75C48 51.4239 47.4732 50.1521 46.5355 49.2145C45.5979 48.2768 44.3261 47.75 43 47.75H33C31.6739 47.75 30.4021 48.2768 29.4645 49.2145C28.5268 50.1521 28 51.4239 28 52.75V55.25M43 37.75C43 40.5114 40.7614 42.75 38 42.75C35.2386 42.75 33 40.5114 33 37.75C33 34.9886 35.2386 32.75 38 32.75C40.7614 32.75 43 34.9886 43 37.75Z" stroke="#032B6F" stroke-width="4" stroke-linecap="round" stroke-linejoin="round"/>
<path d="M161.417 426.311C178.629 403.933 212.371 403.933 229.583 426.311L324.557 549.783C346.308 578.061 326.149 619 290.474 619H100.526C64.8506 619 44.6915 578.061 66.4425 549.783L161.417 426.311Z" fill="#415836"/>

<path d="M1214.51 422.188C1231.2 405.942 1257.8 405.942 1274.49 422.188L1395.99 540.435C1423.64 567.35 1404.59 614.25 1366 614.25H1123C1084.41 614.25 1065.36 567.35 1093.01 540.435L1214.51 422.188Z" fill="#415836"/>
<ellipse cx="121.976" cy="220.388" rx="50.9761" ry="43.4664" fill="white"/>
<ellipse cx="161.316" cy="192.382" rx="53.1924" ry="39.3823" fill="white"/>
<ellipse cx="162.978" cy="232.057" rx="54.8547" ry="45.8002" fill="white"/>
<ellipse cx="47.3775" cy="38.7966" rx="47.3775" ry="38.7966" transform="matrix(0.999346 -0.0361491 0.0326071 0.999468 158.546 180.347)" fill="white"/>
<ellipse cx="403.134" cy="102.388" rx="56.1342" ry="43.4664" fill="white"/>
<ellipse cx="446.455" cy="74.3823" rx="58.5748" ry="39.3823" fill="white"/>
<ellipse cx="448.286" cy="114.056" rx="60.4053" ry="45.8002" fill="white"/>
<ellipse cx="52.1656" cy="38.801" rx="52.1656" ry="38.801" transform="matrix(0.999461 -0.0328311 0.0359025 0.999355 443.404 62.3465)" fill="white"/>
<ellipse cx="502.134" cy="94.3875" rx="56.1342" ry="43.4664" fill="white"/>
<ellipse cx="545.455" cy="66.3823" rx="58.5748" ry="39.3823" fill="white"/>
<ellipse cx="547.286" cy="106.056" rx="60.4053" ry="45.8002" fill="white"/>
<ellipse cx="52.1656" cy="38.801" rx="52.1656" ry="38.801" transform="matrix(0.999461 -0.0328311 0.0359025 0.999355 542.404 54.3465)" fill="white"/>
<ellipse cx="898.075" cy="191.465" rx="54.0746" ry="43.5162" fill="white"/>
<ellipse cx="939.806" cy="163.427" rx="56.4257" ry="39.4274" fill="white"/>
<ellipse cx="941.569" cy="203.148" rx="58.189" ry="45.8526" fill="white"/>
<ellipse cx="50.2537" cy="38.8436" rx="50.2537" ry="38.8436" transform="matrix(0.999418 -0.0341192 0.0345473 0.999403 936.867 151.378)" fill="white"/>
<ellipse cx="898.075" cy="191.465" rx="54.0746" ry="43.5162" fill="white"/>
<ellipse cx="939.806" cy="163.427" rx="56.4257" ry="39.4274" fill="white"/>
<ellipse cx="941.569" cy="203.148" rx="58.189" ry="45.8526" fill="white"/>
<ellipse cx="50.2537" cy="38.8436" rx="50.2537" ry="38.8436" transform="matrix(0.999418 -0.0341192 0.0345473 0.999403 936.867 151.378)" fill="white"/>
<ellipse cx="1120.07" cy="62.671" rx="54.0746" ry="36.5537" fill="white"/>
<ellipse cx="1161.81" cy="39.1191" rx="56.4257" ry="33.1191" fill="white"/>
<ellipse cx="1163.57" cy="72.4839" rx="58.189" ry="38.5163" fill="white"/>
<ellipse cx="50.2451" cy="32.6368" rx="50.2451" ry="32.6368" transform="matrix(0.999589 -0.0286651 0.0411174 0.999154 1158.87 28.9976)" fill="white"/>
<ellipse cx="31.0746" cy="50.671" rx="54.0746" ry="36.5537" fill="white"/>
<ellipse cx="72.8055" cy="27.1191" rx="56.4257" ry="33.1191" fill="white"/>
<ellipse cx="74.5688" cy="60.4839" rx="58.189" ry="38.5163" fill="white"/>
<ellipse cx="50.2451" cy="32.6368" rx="50.2451" ry="32.6368" transform="matrix(0.999589 -0.0286651 0.0411174 0.999154 69.8668 16.9976)" fill="white"/>
<path d="M283.984 456.301C300.906 438.678 329.094 438.678 346.016 456.301L450.36 564.967C476.603 592.298 457.234 637.75 419.344 637.75H210.656C172.766 637.75 153.397 592.298 179.64 564.968L283.984 456.301Z" fill="#58754A"/>
<path d="M29.0598 442.044C45.7404 425.863 72.2596 425.863 88.9402 442.044L227.942 576.886C255.666 603.78 236.627 650.75 198.002 650.75H-80.002C-118.627 650.75 -137.666 603.78 -109.942 576.886L29.0598 442.044Z" fill="#749862"/>
<path d="M952.884 439.791C969.341 424.648 994.659 424.648 1011.12 439.791L1108.73 529.607C1137.56 556.134 1118.79 604.25 1079.61 604.25H884.39C845.213 604.25 826.445 556.135 855.274 529.607L952.884 439.791Z" fill="#58754A"/>
<path d="M464.199 779.727C464.199 778.989 464.379 778.316 464.739 777.71C465.098 777.104 465.581 776.621 466.188 776.261C466.794 775.902 467.466 775.722 468.205 775.722C468.848 775.722 469.445 775.864 469.994 776.148C470.544 776.432 470.996 776.818 471.351 777.305C471.706 777.793 471.919 778.342 471.99 778.953H469.881C469.81 778.598 469.613 778.309 469.291 778.087C468.974 777.859 468.612 777.746 468.205 777.746C467.84 777.746 467.506 777.833 467.203 778.009C466.905 778.184 466.666 778.423 466.486 778.726C466.306 779.024 466.216 779.356 466.216 779.72C466.216 780.085 466.306 780.419 466.486 780.722C466.666 781.02 466.905 781.259 467.203 781.439C467.506 781.619 467.84 781.709 468.205 781.709C468.612 781.709 468.964 781.598 469.263 781.375C469.561 781.148 469.748 780.857 469.824 780.501H471.933C471.862 781.112 471.654 781.661 471.308 782.149C470.963 782.637 470.52 783.023 469.98 783.307C469.44 783.591 468.848 783.733 468.205 783.733C467.466 783.733 466.794 783.553 466.188 783.193C465.581 782.833 465.098 782.35 464.739 781.744C464.379 781.138 464.199 780.466 464.199 779.727ZM468.148 787.227C467.116 787.227 466.145 787.033 465.236 786.645C464.331 786.257 463.534 785.719 462.842 785.033C462.156 784.341 461.616 783.544 461.223 782.639C460.835 781.735 460.643 780.764 460.648 779.727C460.652 778.69 460.849 777.72 461.237 776.815C461.63 775.911 462.17 775.116 462.857 774.429C463.543 773.738 464.339 773.198 465.243 772.81C466.147 772.421 467.116 772.227 468.148 772.227C469.185 772.227 470.155 772.421 471.06 772.81C471.969 773.198 472.764 773.738 473.446 774.429C474.133 775.116 474.67 775.911 475.058 776.815C475.446 777.72 475.643 778.69 475.648 779.727C475.652 780.764 475.461 781.735 475.072 782.639C474.684 783.544 474.147 784.341 473.46 785.033C472.774 785.719 471.976 786.257 471.067 786.645C470.158 787.033 469.185 787.227 468.148 787.227ZM468.148 784.862C468.863 784.862 469.53 784.73 470.151 784.464C470.776 784.199 471.322 783.832 471.791 783.364C472.26 782.89 472.627 782.346 472.892 781.73C473.157 781.11 473.287 780.445 473.283 779.734C473.283 779.019 473.148 778.352 472.878 777.732C472.613 777.107 472.246 776.56 471.777 776.091C471.308 775.622 470.764 775.255 470.143 774.99C469.523 774.725 468.858 774.592 468.148 774.592C467.442 774.592 466.779 774.725 466.159 774.99C465.544 775.255 464.999 775.625 464.526 776.098C464.057 776.567 463.688 777.114 463.418 777.739C463.148 778.359 463.013 779.024 463.013 779.734C463.008 780.44 463.138 781.103 463.403 781.723C463.673 782.339 464.043 782.883 464.511 783.357C464.985 783.825 465.532 784.195 466.152 784.464C466.772 784.73 467.438 784.862 468.148 784.862ZM478.48 787V784.784L483.657 779.99C484.098 779.564 484.467 779.18 484.765 778.839C485.068 778.499 485.298 778.165 485.454 777.838C485.61 777.507 485.689 777.149 485.689 776.766C485.689 776.339 485.592 775.973 485.397 775.665C485.203 775.352 484.938 775.113 484.602 774.947C484.266 774.777 483.885 774.692 483.458 774.692C483.013 774.692 482.625 774.782 482.294 774.962C481.962 775.142 481.707 775.4 481.527 775.736C481.347 776.072 481.257 776.472 481.257 776.936H478.338C478.338 775.984 478.553 775.158 478.984 774.457C479.415 773.757 480.019 773.214 480.795 772.831C481.572 772.447 482.467 772.256 483.48 772.256C484.521 772.256 485.428 772.44 486.2 772.81C486.976 773.174 487.58 773.681 488.011 774.33C488.442 774.978 488.657 775.722 488.657 776.56C488.657 777.109 488.548 777.651 488.331 778.186C488.118 778.721 487.736 779.315 487.187 779.969C486.638 780.617 485.864 781.396 484.865 782.305L482.741 784.386V784.486H488.849V787H478.48ZM496.781 787.32C495.559 787.315 494.508 787.014 493.627 786.418C492.751 785.821 492.076 784.957 491.603 783.825C491.134 782.694 490.902 781.332 490.907 779.741C490.907 778.155 491.141 776.804 491.61 775.686C492.084 774.569 492.758 773.719 493.634 773.136C494.515 772.549 495.564 772.256 496.781 772.256C497.997 772.256 499.044 772.549 499.92 773.136C500.8 773.723 501.478 774.576 501.951 775.693C502.424 776.806 502.659 778.155 502.654 779.741C502.654 781.337 502.417 782.701 501.944 783.832C501.475 784.964 500.803 785.828 499.927 786.425C499.051 787.021 498.002 787.32 496.781 787.32ZM496.781 784.77C497.614 784.77 498.279 784.351 498.776 783.513C499.273 782.675 499.52 781.418 499.515 779.741C499.515 778.638 499.401 777.72 499.174 776.986C498.951 776.252 498.634 775.7 498.222 775.331C497.815 774.962 497.335 774.777 496.781 774.777C495.952 774.777 495.289 775.191 494.792 776.02C494.295 776.848 494.044 778.089 494.039 779.741C494.039 780.859 494.15 781.792 494.373 782.54C494.6 783.283 494.92 783.842 495.332 784.216C495.744 784.585 496.227 784.77 496.781 784.77ZM504.847 787V784.784L510.025 779.99C510.465 779.564 510.834 779.18 511.132 778.839C511.435 778.499 511.665 778.165 511.821 777.838C511.978 777.507 512.056 777.149 512.056 776.766C512.056 776.339 511.959 775.973 511.765 775.665C511.57 775.352 511.305 775.113 510.969 774.947C510.633 774.777 510.252 774.692 509.826 774.692C509.381 774.692 508.992 774.782 508.661 774.962C508.329 775.142 508.074 775.4 507.894 775.736C507.714 776.072 507.624 776.472 507.624 776.936H504.705C504.705 775.984 504.92 775.158 505.351 774.457C505.782 773.757 506.386 773.214 507.162 772.831C507.939 772.447 508.834 772.256 509.847 772.256C510.889 772.256 511.795 772.44 512.567 772.81C513.344 773.174 513.947 773.681 514.378 774.33C514.809 774.978 515.025 775.722 515.025 776.56C515.025 777.109 514.916 777.651 514.698 778.186C514.485 778.721 514.104 779.315 513.554 779.969C513.005 780.617 512.231 781.396 511.232 782.305L509.108 784.386V784.486H515.216V787H504.847ZM522.757 787.199C521.753 787.199 520.858 787.014 520.072 786.645C519.291 786.276 518.671 785.767 518.212 785.118C517.752 784.469 517.513 783.726 517.494 782.888H520.477C520.51 783.451 520.747 783.908 521.188 784.259C521.628 784.609 522.151 784.784 522.757 784.784C523.24 784.784 523.666 784.678 524.036 784.464C524.41 784.247 524.701 783.946 524.909 783.562C525.122 783.174 525.229 782.729 525.229 782.227C525.229 781.716 525.12 781.266 524.902 780.878C524.689 780.49 524.393 780.187 524.014 779.969C523.635 779.751 523.202 779.64 522.714 779.635C522.288 779.635 521.874 779.723 521.472 779.898C521.074 780.073 520.764 780.312 520.541 780.615L517.807 780.125L518.496 772.455H527.388V774.969H521.031L520.655 778.612H520.74C520.996 778.252 521.382 777.954 521.898 777.717C522.414 777.481 522.991 777.362 523.631 777.362C524.507 777.362 525.288 777.568 525.974 777.98C526.661 778.392 527.203 778.958 527.601 779.678C527.999 780.393 528.195 781.216 528.19 782.149C528.195 783.129 527.968 784 527.509 784.763C527.054 785.52 526.417 786.117 525.598 786.553C524.784 786.983 523.837 787.199 522.757 787.199ZM535.049 772.455H538.842L542.848 782.227H543.018L547.024 772.455H550.816V787H547.833V777.533H547.713L543.949 786.929H541.917L538.153 777.497H538.032V787H535.049V772.455ZM558.222 787.213C557.119 787.213 556.165 786.979 555.36 786.51C554.56 786.036 553.942 785.378 553.506 784.536C553.071 783.688 552.853 782.705 552.853 781.588C552.853 780.461 553.071 779.476 553.506 778.634C553.942 777.786 554.56 777.128 555.36 776.659C556.165 776.186 557.119 775.949 558.222 775.949C559.326 775.949 560.277 776.186 561.077 776.659C561.882 777.128 562.503 777.786 562.938 778.634C563.374 779.476 563.592 780.461 563.592 781.588C563.592 782.705 563.374 783.688 562.938 784.536C562.503 785.378 561.882 786.036 561.077 786.51C560.277 786.979 559.326 787.213 558.222 787.213ZM558.237 784.869C558.738 784.869 559.157 784.727 559.494 784.443C559.83 784.154 560.083 783.761 560.254 783.264C560.429 782.767 560.516 782.201 560.516 781.567C560.516 780.932 560.429 780.366 560.254 779.869C560.083 779.372 559.83 778.979 559.494 778.69C559.157 778.402 558.738 778.257 558.237 778.257C557.73 778.257 557.304 778.402 556.958 778.69C556.617 778.979 556.359 779.372 556.184 779.869C556.013 780.366 555.928 780.932 555.928 781.567C555.928 782.201 556.013 782.767 556.184 783.264C556.359 783.761 556.617 784.154 556.958 784.443C557.304 784.727 557.73 784.869 558.237 784.869ZM571.362 776.091V778.364H564.792V776.091H571.362ZM566.283 773.477H569.309V783.648C569.309 783.927 569.352 784.145 569.437 784.301C569.522 784.453 569.64 784.559 569.792 784.621C569.948 784.682 570.128 784.713 570.332 784.713C570.474 784.713 570.616 784.701 570.758 784.678C570.9 784.649 571.009 784.628 571.085 784.614L571.56 786.865C571.409 786.912 571.196 786.967 570.921 787.028C570.647 787.095 570.313 787.135 569.92 787.149C569.191 787.178 568.551 787.08 568.002 786.858C567.458 786.635 567.034 786.29 566.731 785.821C566.428 785.352 566.279 784.76 566.283 784.045V773.477ZM573.332 787V776.091H576.358V787H573.332ZM574.852 774.685C574.402 774.685 574.017 774.536 573.695 774.237C573.377 773.934 573.219 773.572 573.219 773.151C573.219 772.734 573.377 772.376 573.695 772.078C574.017 771.775 574.402 771.624 574.852 771.624C575.302 771.624 575.686 771.775 576.003 772.078C576.325 772.376 576.486 772.734 576.486 773.151C576.486 773.572 576.325 773.934 576.003 774.237C575.686 774.536 575.302 774.685 574.852 774.685ZM583.711 787.213C582.607 787.213 581.653 786.979 580.848 786.51C580.048 786.036 579.43 785.378 578.995 784.536C578.559 783.688 578.341 782.705 578.341 781.588C578.341 780.461 578.559 779.476 578.995 778.634C579.43 777.786 580.048 777.128 580.848 776.659C581.653 776.186 582.607 775.949 583.711 775.949C584.814 775.949 585.766 776.186 586.566 776.659C587.371 777.128 587.991 777.786 588.426 778.634C588.862 779.476 589.08 780.461 589.08 781.588C589.08 782.705 588.862 783.688 588.426 784.536C587.991 785.378 587.371 786.036 586.566 786.51C585.766 786.979 584.814 787.213 583.711 787.213ZM583.725 784.869C584.227 784.869 584.646 784.727 584.982 784.443C585.318 784.154 585.571 783.761 585.742 783.264C585.917 782.767 586.005 782.201 586.005 781.567C586.005 780.932 585.917 780.366 585.742 779.869C585.571 779.372 585.318 778.979 584.982 778.69C584.646 778.402 584.227 778.257 583.725 778.257C583.218 778.257 582.792 778.402 582.446 778.69C582.105 778.979 581.847 779.372 581.672 779.869C581.502 780.366 581.417 780.932 581.417 781.567C581.417 782.201 581.502 782.767 581.672 783.264C581.847 783.761 582.105 784.154 582.446 784.443C582.792 784.727 583.218 784.869 583.725 784.869ZM594.073 780.693V787H591.047V776.091H593.931V778.016H594.059C594.3 777.381 594.705 776.879 595.273 776.51C595.841 776.136 596.53 775.949 597.34 775.949C598.097 775.949 598.758 776.115 599.321 776.446C599.885 776.777 600.323 777.251 600.635 777.866C600.948 778.477 601.104 779.206 601.104 780.054V787H598.078V780.594C598.083 779.926 597.913 779.405 597.567 779.031C597.221 778.652 596.746 778.463 596.14 778.463C595.732 778.463 595.373 778.551 595.06 778.726C594.752 778.901 594.511 779.157 594.336 779.493C594.165 779.824 594.078 780.224 594.073 780.693ZM603.545 787V772.455H606.621V784.464H612.857V787H603.545ZM617.947 787.206C617.251 787.206 616.631 787.085 616.086 786.844C615.542 786.598 615.111 786.235 614.794 785.757C614.481 785.274 614.325 784.673 614.325 783.953C614.325 783.347 614.436 782.838 614.659 782.426C614.881 782.014 615.184 781.683 615.568 781.432C615.951 781.181 616.387 780.991 616.875 780.864C617.367 780.736 617.883 780.646 618.423 780.594C619.057 780.527 619.569 780.466 619.957 780.409C620.345 780.348 620.627 780.258 620.802 780.139C620.977 780.021 621.065 779.846 621.065 779.614V779.571C621.065 779.121 620.923 778.773 620.639 778.527C620.359 778.281 619.962 778.158 619.446 778.158C618.901 778.158 618.468 778.278 618.146 778.52C617.824 778.757 617.611 779.055 617.507 779.415L614.708 779.188C614.85 778.525 615.13 777.952 615.547 777.469C615.963 776.981 616.501 776.607 617.159 776.347C617.822 776.081 618.589 775.949 619.46 775.949C620.066 775.949 620.646 776.02 621.2 776.162C621.759 776.304 622.253 776.524 622.684 776.822C623.12 777.121 623.463 777.504 623.714 777.973C623.965 778.437 624.091 778.993 624.091 779.642V787H621.221V785.487H621.136C620.961 785.828 620.726 786.129 620.433 786.389C620.139 786.645 619.787 786.846 619.375 786.993C618.963 787.135 618.487 787.206 617.947 787.206ZM618.814 785.118C619.259 785.118 619.652 785.03 619.993 784.855C620.333 784.675 620.601 784.434 620.795 784.131C620.989 783.828 621.086 783.484 621.086 783.101V781.943C620.992 782.005 620.861 782.062 620.696 782.114C620.535 782.161 620.352 782.206 620.149 782.249C619.945 782.286 619.742 782.322 619.538 782.355C619.334 782.384 619.15 782.41 618.984 782.433C618.629 782.485 618.319 782.568 618.054 782.682C617.788 782.795 617.583 782.949 617.436 783.143C617.289 783.333 617.216 783.57 617.216 783.854C617.216 784.266 617.365 784.58 617.663 784.798C617.966 785.011 618.35 785.118 618.814 785.118ZM626.495 787V772.455H629.52V777.923H629.613C629.745 777.63 629.937 777.331 630.188 777.028C630.444 776.721 630.775 776.465 631.182 776.261C631.594 776.053 632.105 775.949 632.716 775.949C633.512 775.949 634.246 776.157 634.918 776.574C635.59 776.986 636.128 777.608 636.53 778.442C636.933 779.27 637.134 780.31 637.134 781.56C637.134 782.777 636.937 783.804 636.544 784.642C636.156 785.475 635.626 786.107 634.953 786.538C634.286 786.964 633.538 787.178 632.709 787.178C632.122 787.178 631.623 787.08 631.211 786.886C630.803 786.692 630.47 786.448 630.209 786.155C629.949 785.857 629.75 785.556 629.613 785.253H629.478V787H626.495ZM629.456 781.545C629.456 782.194 629.546 782.76 629.726 783.243C629.906 783.726 630.167 784.102 630.507 784.372C630.848 784.637 631.263 784.77 631.75 784.77C632.243 784.77 632.659 784.635 633 784.365C633.341 784.09 633.599 783.712 633.775 783.229C633.954 782.741 634.044 782.18 634.044 781.545C634.044 780.916 633.957 780.362 633.782 779.884C633.606 779.405 633.348 779.031 633.007 778.761C632.667 778.491 632.248 778.357 631.75 778.357C631.258 778.357 630.841 778.487 630.5 778.747C630.164 779.008 629.906 779.377 629.726 779.855C629.546 780.333 629.456 780.897 629.456 781.545ZM644.932 787H643.086L648.426 772.455H650.245L655.586 787H653.739L649.392 774.756H649.279L644.932 787ZM645.614 781.318H653.057V782.881H645.614V781.318ZM659.3 772.455V787H657.624V772.455H659.3ZM664.046 772.455V787H662.37V772.455H664.046ZM672.741 787V776.091H674.36V777.739H674.474C674.673 777.199 675.033 776.761 675.554 776.425C676.074 776.089 676.662 775.92 677.315 775.92C677.438 775.92 677.592 775.923 677.777 775.928C677.961 775.932 678.101 775.939 678.196 775.949V777.653C678.139 777.639 678.009 777.618 677.805 777.589C677.606 777.556 677.395 777.54 677.173 777.54C676.643 777.54 676.169 777.651 675.752 777.874C675.341 778.091 675.014 778.394 674.772 778.783C674.536 779.166 674.417 779.604 674.417 780.097V787H672.741ZM680.183 787V776.091H681.859V787H680.183ZM681.035 774.273C680.708 774.273 680.426 774.161 680.19 773.939C679.958 773.716 679.842 773.449 679.842 773.136C679.842 772.824 679.958 772.556 680.19 772.334C680.426 772.111 680.708 772 681.035 772C681.362 772 681.641 772.111 681.873 772.334C682.11 772.556 682.228 772.824 682.228 773.136C682.228 773.449 682.11 773.716 681.873 773.939C681.641 774.161 681.362 774.273 681.035 774.273ZM689.332 791.318C688.522 791.318 687.826 791.214 687.244 791.006C686.662 790.802 686.176 790.532 685.788 790.196C685.404 789.865 685.099 789.509 684.872 789.131L686.207 788.193C686.359 788.392 686.55 788.619 686.782 788.875C687.014 789.135 687.332 789.36 687.734 789.55C688.141 789.744 688.674 789.841 689.332 789.841C690.213 789.841 690.94 789.628 691.512 789.202C692.085 788.776 692.372 788.108 692.372 787.199V784.983H692.23C692.107 785.182 691.931 785.428 691.704 785.722C691.482 786.01 691.16 786.268 690.738 786.496C690.322 786.718 689.758 786.83 689.048 786.83C688.167 786.83 687.377 786.621 686.676 786.205C685.98 785.788 685.428 785.182 685.021 784.386C684.618 783.591 684.417 782.625 684.417 781.489C684.417 780.371 684.614 779.398 685.007 778.57C685.4 777.736 685.947 777.092 686.647 776.638C687.348 776.179 688.158 775.949 689.076 775.949C689.787 775.949 690.35 776.067 690.767 776.304C691.188 776.536 691.51 776.801 691.733 777.099C691.96 777.393 692.135 777.634 692.258 777.824H692.429V776.091H694.048V787.312C694.048 788.25 693.835 789.012 693.409 789.599C692.987 790.191 692.419 790.625 691.704 790.899C690.994 791.179 690.203 791.318 689.332 791.318ZM689.275 785.324C689.948 785.324 690.516 785.17 690.98 784.862C691.444 784.554 691.797 784.112 692.038 783.534C692.279 782.956 692.4 782.265 692.4 781.46C692.4 780.674 692.282 779.981 692.045 779.379C691.808 778.778 691.458 778.307 690.994 777.966C690.53 777.625 689.957 777.455 689.275 777.455C688.565 777.455 687.973 777.634 687.5 777.994C687.031 778.354 686.678 778.837 686.441 779.443C686.209 780.049 686.093 780.722 686.093 781.46C686.093 782.218 686.212 782.888 686.449 783.47C686.69 784.048 687.045 784.502 687.514 784.834C687.987 785.161 688.574 785.324 689.275 785.324ZM698.792 780.438V787H697.116V772.455H698.792V777.795H698.934C699.19 777.232 699.574 776.785 700.085 776.453C700.601 776.117 701.288 775.949 702.145 775.949C702.888 775.949 703.539 776.098 704.098 776.396C704.656 776.69 705.09 777.142 705.397 777.753C705.71 778.359 705.866 779.131 705.866 780.068V787H704.19V780.182C704.19 779.315 703.965 778.645 703.515 778.172C703.07 777.694 702.452 777.455 701.662 777.455C701.112 777.455 700.62 777.571 700.184 777.803C699.753 778.035 699.413 778.373 699.162 778.818C698.915 779.263 698.792 779.803 698.792 780.438ZM713.677 776.091V777.511H708.023V776.091H713.677ZM709.671 773.477H711.347V783.875C711.347 784.348 711.416 784.704 711.553 784.94C711.695 785.172 711.875 785.329 712.093 785.409C712.316 785.485 712.55 785.523 712.796 785.523C712.981 785.523 713.132 785.513 713.251 785.494C713.369 785.471 713.464 785.452 713.535 785.438L713.876 786.943C713.762 786.986 713.603 787.028 713.4 787.071C713.196 787.118 712.938 787.142 712.626 787.142C712.152 787.142 711.688 787.04 711.234 786.837C710.784 786.633 710.41 786.323 710.112 785.906C709.818 785.49 709.671 784.964 709.671 784.33V773.477ZM723.73 778.534L722.224 778.96C722.13 778.709 721.99 778.465 721.805 778.229C721.625 777.987 721.379 777.788 721.067 777.632C720.754 777.476 720.354 777.398 719.866 777.398C719.199 777.398 718.643 777.552 718.197 777.859C717.757 778.162 717.537 778.548 717.537 779.017C717.537 779.434 717.688 779.763 717.991 780.004C718.295 780.246 718.768 780.447 719.412 780.608L721.031 781.006C722.007 781.242 722.733 781.605 723.212 782.092C723.69 782.575 723.929 783.198 723.929 783.96C723.929 784.585 723.749 785.144 723.389 785.636C723.034 786.129 722.537 786.517 721.898 786.801C721.259 787.085 720.515 787.227 719.668 787.227C718.555 787.227 717.634 786.986 716.905 786.503C716.176 786.02 715.714 785.314 715.52 784.386L717.111 783.989C717.262 784.576 717.549 785.016 717.97 785.31C718.396 785.603 718.953 785.75 719.639 785.75C720.42 785.75 721.041 785.584 721.5 785.253C721.964 784.917 722.196 784.514 722.196 784.045C722.196 783.667 722.063 783.349 721.798 783.094C721.533 782.833 721.126 782.639 720.577 782.511L718.759 782.085C717.759 781.848 717.026 781.482 716.557 780.984C716.093 780.482 715.861 779.855 715.861 779.102C715.861 778.487 716.034 777.942 716.379 777.469C716.73 776.995 717.205 776.624 717.807 776.354C718.413 776.084 719.099 775.949 719.866 775.949C720.946 775.949 721.794 776.186 722.409 776.659C723.029 777.133 723.47 777.758 723.73 778.534ZM732.077 787V776.091H733.696V777.739H733.81C734.009 777.199 734.369 776.761 734.89 776.425C735.41 776.089 735.998 775.92 736.651 775.92C736.774 775.92 736.928 775.923 737.113 775.928C737.297 775.932 737.437 775.939 737.532 775.949V777.653C737.475 777.639 737.345 777.618 737.141 777.589C736.942 777.556 736.731 777.54 736.509 777.54C735.979 777.54 735.505 777.651 735.088 777.874C734.676 778.091 734.35 778.394 734.108 778.783C733.872 779.166 733.753 779.604 733.753 780.097V787H732.077ZM743.76 787.227C742.709 787.227 741.802 786.995 741.04 786.531C740.283 786.062 739.698 785.409 739.286 784.571C738.879 783.728 738.675 782.748 738.675 781.631C738.675 780.513 738.879 779.528 739.286 778.676C739.698 777.819 740.271 777.152 741.005 776.673C741.743 776.19 742.605 775.949 743.59 775.949C744.158 775.949 744.719 776.044 745.273 776.233C745.827 776.422 746.331 776.73 746.786 777.156C747.24 777.578 747.603 778.136 747.873 778.832C748.142 779.528 748.277 780.385 748.277 781.403V782.114H739.868V780.665H746.573C746.573 780.049 746.45 779.5 746.203 779.017C745.962 778.534 745.616 778.153 745.167 777.874C744.721 777.594 744.196 777.455 743.59 777.455C742.922 777.455 742.345 777.62 741.857 777.952C741.374 778.278 741.002 778.705 740.742 779.23C740.481 779.756 740.351 780.319 740.351 780.92V781.886C740.351 782.71 740.493 783.409 740.777 783.982C741.066 784.55 741.466 784.983 741.978 785.281C742.489 785.575 743.083 785.722 743.76 785.722C744.201 785.722 744.598 785.66 744.953 785.537C745.313 785.409 745.623 785.22 745.884 784.969C746.144 784.713 746.346 784.396 746.488 784.017L748.107 784.472C747.936 785.021 747.65 785.504 747.248 785.92C746.845 786.332 746.348 786.654 745.756 786.886C745.164 787.114 744.499 787.227 743.76 787.227ZM758.554 778.534L757.049 778.96C756.954 778.709 756.814 778.465 756.63 778.229C756.45 777.987 756.203 777.788 755.891 777.632C755.578 777.476 755.178 777.398 754.691 777.398C754.023 777.398 753.467 777.552 753.022 777.859C752.581 778.162 752.361 778.548 752.361 779.017C752.361 779.434 752.513 779.763 752.816 780.004C753.119 780.246 753.592 780.447 754.236 780.608L755.855 781.006C756.831 781.242 757.558 781.605 758.036 782.092C758.514 782.575 758.753 783.198 758.753 783.96C758.753 784.585 758.573 785.144 758.213 785.636C757.858 786.129 757.361 786.517 756.722 786.801C756.083 787.085 755.339 787.227 754.492 787.227C753.379 787.227 752.458 786.986 751.729 786.503C751 786.02 750.538 785.314 750.344 784.386L751.935 783.989C752.087 784.576 752.373 785.016 752.794 785.31C753.221 785.603 753.777 785.75 754.463 785.75C755.245 785.75 755.865 785.584 756.324 785.253C756.788 784.917 757.02 784.514 757.02 784.045C757.02 783.667 756.888 783.349 756.623 783.094C756.357 782.833 755.95 782.639 755.401 782.511L753.583 782.085C752.584 781.848 751.85 781.482 751.381 780.984C750.917 780.482 750.685 779.855 750.685 779.102C750.685 778.487 750.858 777.942 751.203 777.469C751.554 776.995 752.03 776.624 752.631 776.354C753.237 776.084 753.924 775.949 754.691 775.949C755.77 775.949 756.618 776.186 757.233 776.659C757.854 777.133 758.294 777.758 758.554 778.534ZM765.85 787.227C764.799 787.227 763.892 786.995 763.13 786.531C762.372 786.062 761.788 785.409 761.376 784.571C760.969 783.728 760.765 782.748 760.765 781.631C760.765 780.513 760.969 779.528 761.376 778.676C761.788 777.819 762.361 777.152 763.094 776.673C763.833 776.19 764.695 775.949 765.68 775.949C766.248 775.949 766.809 776.044 767.363 776.233C767.917 776.422 768.421 776.73 768.876 777.156C769.33 777.578 769.692 778.136 769.962 778.832C770.232 779.528 770.367 780.385 770.367 781.403V782.114H761.958V780.665H768.663C768.663 780.049 768.54 779.5 768.293 779.017C768.052 778.534 767.706 778.153 767.256 777.874C766.811 777.594 766.286 777.455 765.68 777.455C765.012 777.455 764.434 777.62 763.947 777.952C763.464 778.278 763.092 778.705 762.832 779.23C762.571 779.756 762.441 780.319 762.441 780.92V781.886C762.441 782.71 762.583 783.409 762.867 783.982C763.156 784.55 763.556 784.983 764.067 785.281C764.579 785.575 765.173 785.722 765.85 785.722C766.29 785.722 766.688 785.66 767.043 785.537C767.403 785.409 767.713 785.22 767.974 784.969C768.234 784.713 768.435 784.396 768.577 784.017L770.197 784.472C770.026 785.021 769.74 785.504 769.337 785.92C768.935 786.332 768.438 786.654 767.846 786.886C767.254 787.114 766.589 787.227 765.85 787.227ZM772.917 787V776.091H774.536V777.739H774.65C774.849 777.199 775.209 776.761 775.729 776.425C776.25 776.089 776.837 775.92 777.491 775.92C777.614 775.92 777.768 775.923 777.952 775.928C778.137 775.932 778.277 775.939 778.371 775.949V777.653C778.315 777.639 778.184 777.618 777.981 777.589C777.782 777.556 777.571 777.54 777.349 777.54C776.818 777.54 776.345 777.651 775.928 777.874C775.516 778.091 775.19 778.394 774.948 778.783C774.711 779.166 774.593 779.604 774.593 780.097V787H772.917ZM789.611 776.091L785.577 787H783.872L779.838 776.091H781.656L784.668 784.784H784.781L787.793 776.091H789.611ZM796.006 787.227C794.955 787.227 794.049 786.995 793.286 786.531C792.529 786.062 791.944 785.409 791.532 784.571C791.125 783.728 790.921 782.748 790.921 781.631C790.921 780.513 791.125 779.528 791.532 778.676C791.944 777.819 792.517 777.152 793.251 776.673C793.989 776.19 794.851 775.949 795.836 775.949C796.404 775.949 796.965 776.044 797.519 776.233C798.073 776.422 798.577 776.73 799.032 777.156C799.487 777.578 799.849 778.136 800.119 778.832C800.388 779.528 800.523 780.385 800.523 781.403V782.114H792.114V780.665H798.819C798.819 780.049 798.696 779.5 798.45 779.017C798.208 778.534 797.862 778.153 797.413 777.874C796.968 777.594 796.442 777.455 795.836 777.455C795.168 777.455 794.591 777.62 794.103 777.952C793.62 778.278 793.248 778.705 792.988 779.23C792.728 779.756 792.597 780.319 792.597 780.92V781.886C792.597 782.71 792.739 783.409 793.023 783.982C793.312 784.55 793.712 784.983 794.224 785.281C794.735 785.575 795.329 785.722 796.006 785.722C796.447 785.722 796.844 785.66 797.2 785.537C797.559 785.409 797.87 785.22 798.13 784.969C798.39 784.713 798.592 784.396 798.734 784.017L800.353 784.472C800.183 785.021 799.896 785.504 799.494 785.92C799.091 786.332 798.594 786.654 798.002 786.886C797.41 787.114 796.745 787.227 796.006 787.227ZM807.192 787.227C806.283 787.227 805.481 786.998 804.785 786.538C804.089 786.074 803.544 785.421 803.151 784.578C802.758 783.731 802.562 782.729 802.562 781.574C802.562 780.428 802.758 779.434 803.151 778.591C803.544 777.748 804.091 777.097 804.792 776.638C805.493 776.179 806.302 775.949 807.221 775.949C807.931 775.949 808.492 776.067 808.904 776.304C809.321 776.536 809.638 776.801 809.856 777.099C810.078 777.393 810.251 777.634 810.374 777.824H810.516V772.455H812.192V787H810.573V785.324H810.374C810.251 785.523 810.076 785.774 809.849 786.077C809.621 786.375 809.297 786.643 808.876 786.879C808.454 787.111 807.893 787.227 807.192 787.227ZM807.42 785.722C808.092 785.722 808.66 785.546 809.124 785.196C809.588 784.841 809.941 784.351 810.183 783.726C810.424 783.096 810.545 782.369 810.545 781.545C810.545 780.731 810.426 780.018 810.19 779.408C809.953 778.792 809.603 778.314 809.138 777.973C808.674 777.627 808.102 777.455 807.42 777.455C806.71 777.455 806.118 777.637 805.644 778.001C805.175 778.361 804.823 778.851 804.586 779.472C804.354 780.087 804.238 780.778 804.238 781.545C804.238 782.322 804.356 783.027 804.593 783.662C804.835 784.292 805.19 784.794 805.658 785.168C806.132 785.537 806.719 785.722 807.42 785.722Z" fill="#FAF1E1"/>
<path d="M1078.3 470.225C1094.13 457.292 1116.87 457.292 1132.7 470.225L1248.96 565.2C1280.27 590.776 1262.18 641.5 1221.76 641.5H989.244C948.817 641.5 930.732 590.776 962.039 565.2L1078.3 470.225Z" fill="#749862"/>
<path d="M-1 582H1280V832H-1V582Z" fill="url(#paint1_linear_565_2248)"/>
</g>
<defs>
<linearGradient id="paint0_linear_565_2248" x1="498.488" y1="582" x2="498.488" y2="725" gradientUnits="userSpaceOnUse">
<stop stop-color="#A6C48A"/>
<stop offset="0.64" stop-color="#9DBA83"/>
</linearGradient>
<linearGradient id="paint1_linear_565_2248" x1="495.388" y1="582" x2="495.387" y2="832" gradientUnits="userSpaceOnUse">
<stop stop-color="#A6C48A"/>
<stop offset="0.64" stop-color="#9DBA83"/>
</linearGradient>
<clipPath id="clip0_565_2248">
<rect width="1280" height="832" fill="white"/>
</clipPath>
</defs>
</svg>
