<svg width="48" height="45" viewBox="0 0 48 45" fill="none" xmlns="http://www.w3.org/2000/svg">
<path d="M42.968 27.7327L43.4265 23.471C43.671 21.1973 43.8325 19.6957 43.7057 18.7498L43.75 18.75C45.821 18.75 47.5 17.0711 47.5 15C47.5 12.9289 45.821 11.25 43.75 11.25C41.679 11.25 40 12.9289 40 15C40 15.9367 40.3435 16.7931 40.9113 17.4503C40.096 17.9535 39.0305 19.015 37.4263 20.6128C36.1905 21.8438 35.5725 22.4592 34.8833 22.5548C34.5013 22.6075 34.1122 22.5532 33.7595 22.398C33.123 22.1175 32.6985 21.3568 31.8497 19.835L27.3762 11.8135C26.8525 10.8747 26.4142 10.0889 26.0192 9.45662C27.64 8.62967 28.75 6.94445 28.75 5C28.75 2.23857 26.5115 0 23.75 0C20.9885 0 18.75 2.23857 18.75 5C18.75 6.94445 19.86 8.62967 21.4808 9.45662C21.0858 10.089 20.6475 10.8746 20.1238 11.8135L15.6502 19.835C14.8014 21.3568 14.377 22.1175 13.7405 22.398C13.3878 22.5532 12.9987 22.6075 12.6167 22.5548C11.9274 22.4592 11.3095 21.8438 10.0737 20.6128C8.46968 19.015 7.4039 17.9535 6.58883 17.4503C7.1566 16.7931 7.5 15.9367 7.5 15C7.5 12.9289 5.82107 11.25 3.75 11.25C1.67893 11.25 0 12.9289 0 15C0 17.0711 1.67893 18.75 3.75 18.75L3.79428 18.7498C3.66755 19.6957 3.82905 21.1973 4.07362 23.471L4.532 27.7327C4.78645 30.0982 4.99802 32.349 5.25717 34.375H42.2428C42.502 32.349 42.7135 30.0982 42.968 27.7327Z" fill="#032B6F"/>
<path d="M21.0304 45H26.4699C33.5599 45 37.1047 45 39.4699 42.883C40.5024 41.9588 41.1559 40.293 41.6277 38.125H5.87256C6.34428 40.293 6.99798 41.9588 8.03036 42.883C10.3956 45 13.9405 45 21.0304 45Z" fill="#032B6F"/>
</svg>
