<svg width="251" height="90" viewBox="0 0 251 90" fill="none" xmlns="http://www.w3.org/2000/svg">
<path d="M93.308 61.7924C93.308 81.183 72.6391 89.7505 47.1428 89.7505C21.6464 89.7505 0.977539 81.183 0.977539 61.7924C0.977539 42.4018 21.6464 26.6826 47.1428 26.6826C72.6391 26.6826 93.308 42.4018 93.308 61.7924Z" fill="white"/>
<ellipse cx="82.7703" cy="39.1715" rx="48.1724" ry="31.8109" fill="white"/>
<path d="M174.469 61.4795C174.469 84.2308 144.144 83.2886 106.736 83.2886C69.3284 83.2886 39.0034 84.2308 39.0034 61.4795C39.0034 38.7281 69.3284 20.2844 106.736 20.2844C144.144 20.2844 174.469 38.7281 174.469 61.4795Z" fill="white"/>
<ellipse cx="164.189" cy="32.7093" rx="48.1724" ry="31.8109" fill="white"/>
<path d="M215.372 64.7559C215.372 85.1876 193.13 87.3272 165.694 87.3272C138.258 87.3272 116.016 85.1876 116.016 64.7559C116.016 44.3242 138.258 27.761 165.694 27.761C193.13 27.761 215.372 44.3242 215.372 64.7559Z" fill="white"/>
<path d="M249.649 56.143C250.375 75.9985 234.442 67.1692 210.513 67.9412C186.584 68.7133 163.72 78.7942 162.994 58.9388C162.268 39.0833 181.078 22.3615 205.007 21.5894C228.936 20.8174 248.923 36.2876 249.649 56.143Z" fill="white"/>
<path d="M0.977539 59.8638H249.727V74.7504C249.727 83.0346 243.011 89.7504 234.727 89.7504H15.9775C7.69327 89.7504 0.977539 83.0346 0.977539 74.7504V59.8638Z" fill="white"/>
</svg>
