<svg width="45" height="45" viewBox="0 0 45 45" fill="none" xmlns="http://www.w3.org/2000/svg">
<g clip-path="url(#clip0_833_3564)">
<path d="M31.875 39.375V35.625C31.875 33.6359 31.0848 31.7282 29.6783 30.3217C28.2718 28.9152 26.3641 28.125 24.375 28.125H9.375C7.38588 28.125 5.47822 28.9152 4.0717 30.3217C2.66518 31.7282 1.875 33.6359 1.875 35.625V39.375M43.125 39.375V35.625C43.1238 33.9632 42.5707 32.3489 41.5526 31.0356C40.5345 29.7222 39.109 28.7842 37.5 28.3688M30 5.86875C31.6133 6.28181 33.0432 7.22006 34.0643 8.53558C35.0855 9.8511 35.6397 11.4691 35.6397 13.1344C35.6397 14.7997 35.0855 16.4176 34.0643 17.7332C33.0432 19.0487 31.6133 19.9869 30 20.4M24.375 13.125C24.375 17.2671 21.0171 20.625 16.875 20.625C12.7329 20.625 9.375 17.2671 9.375 13.125C9.375 8.98286 12.7329 5.625 16.875 5.625C21.0171 5.625 24.375 8.98286 24.375 13.125Z" stroke="#C85332" stroke-width="4" stroke-linecap="round" stroke-linejoin="round"/>
</g>
<defs>
<clipPath id="clip0_833_3564">
<rect width="45" height="45" fill="white"/>
</clipPath>
</defs>
</svg>
