<svg width="88" height="84" viewBox="0 0 88 84" fill="none" xmlns="http://www.w3.org/2000/svg">
<g clip-path="url(#clip0_660_914)">
<path d="M88 75C88 79.9706 83.9706 84 79 84H0V0H88V75Z" fill="#547EBC"/>
<path d="M88 75C88 79.9706 83.9706 84 79 84H0V0H88V75Z" stroke="white"/>
<path d="M23.5697 41.2006C22.8001 41.9929 22.8184 43.2591 23.6107 44.0287L36.5218 56.5708C37.314 57.3405 38.5802 57.3221 39.3499 56.5299C40.1195 55.7376 40.1012 54.4714 39.3089 53.7017L27.8324 42.5532L38.981 31.0767C39.7507 30.2844 39.7323 29.0182 38.94 28.2486C38.1477 27.4789 36.8815 27.4973 36.1119 28.2895L23.5697 41.2006ZM66 42L65.971 40.0002L24.9753 40.5944L25.0043 42.5941L25.0333 44.5939L66.029 43.9998L66 42Z" fill="white"/>
</g>
<defs>
<clipPath id="clip0_660_914">
<rect width="88" height="84" fill="white"/>
</clipPath>
</defs>
</svg>
