<svg width="448" height="121" viewBox="0 0 448 121" fill="none" xmlns="http://www.w3.org/2000/svg">
<g filter="url(#filter0_d_448_959)">
<g filter="url(#filter1_d_448_959)">
<rect x="13.4667" width="421.867" height="96" rx="15" fill="#547EBC"/>
<rect x="15.9667" y="2.5" width="416.867" height="91" rx="12.5" stroke="#4971B4" stroke-width="5" stroke-linecap="round"/>
</g>
<path d="M94.5492 63.5953H96.9021V65.9483H94.5492V63.5953ZM92.1962 63.5953H94.5492V65.9483H92.1962V63.5953ZM89.8433 63.5953H92.1962V65.9483H89.8433V63.5953ZM89.8433 65.9483H92.1962V68.3012H89.8433V65.9483ZM92.1962 65.9483H94.5492V68.3012H92.1962V65.9483ZM89.8433 68.3012H92.1962V70.6541H89.8433V68.3012ZM87.4903 68.3012H89.8433V70.6541H87.4903V68.3012ZM92.1962 68.3012H94.5492V70.6541H92.1962V68.3012ZM87.4903 70.6541H89.8433V73.0071H87.4903V70.6541ZM85.1374 70.6541H87.4903V73.0071H85.1374V70.6541ZM82.7845 70.6541H85.1374V73.0071H82.7845V70.6541ZM80.4315 70.6541H82.7845V73.0071H80.4315V70.6541ZM78.0786 70.6541H80.4315V73.0071H78.0786V70.6541ZM75.7256 70.6541H78.0786V73.0071H75.7256V70.6541ZM73.3727 70.6541H75.7256V73.0071H73.3727V70.6541ZM73.3727 68.3012H75.7256V70.6541H73.3727V68.3012ZM71.0198 68.3012H73.3727V70.6541H71.0198V68.3012ZM68.6668 68.3012H71.0198V70.6541H68.6668V68.3012ZM68.6668 65.9483H71.0198V68.3012H68.6668V65.9483ZM71.0198 65.9483H73.3727V68.3012H71.0198V65.9483ZM73.3727 65.9483H75.7256V68.3012H73.3727V65.9483ZM75.7256 65.9483H78.0786V68.3012H75.7256V65.9483ZM78.0786 65.9483H80.4315V68.3012H78.0786V65.9483ZM80.4315 65.9483H82.7845V68.3012H80.4315V65.9483ZM82.7845 65.9483H85.1374V68.3012H82.7845V65.9483ZM85.1374 65.9483H87.4903V68.3012H85.1374V65.9483ZM87.4903 65.9483H89.8433V68.3012H87.4903V65.9483ZM85.1374 68.3012H87.4903V70.6541H85.1374V68.3012ZM82.7845 68.3012H85.1374V70.6541H82.7845V68.3012ZM80.4315 68.3012H82.7845V70.6541H80.4315V68.3012ZM78.0786 68.3012H80.4315V70.6541H78.0786V68.3012ZM75.7256 68.3012H78.0786V70.6541H75.7256V68.3012ZM71.0198 63.5953H73.3727V65.9483H71.0198V63.5953ZM68.6668 63.5953H71.0198V65.9483H68.6668V63.5953ZM66.3139 63.5953H68.6668V65.9483H66.3139V63.5953ZM71.0198 61.2424H73.3727V63.5953H71.0198V61.2424ZM73.3727 61.2424H75.7256V63.5953H73.3727V61.2424ZM75.7256 61.2424H78.0786V63.5953H75.7256V61.2424ZM75.7256 63.5953H78.0786V65.9483H75.7256V63.5953ZM73.3727 63.5953H75.7256V65.9483H73.3727V63.5953ZM68.6668 61.2424H71.0198V63.5953H68.6668V61.2424ZM68.6668 58.8894H71.0198V61.2424H68.6668V58.8894ZM66.3139 58.8894H68.6668V61.2424H66.3139V58.8894ZM66.3139 56.5365H68.6668V58.8894H66.3139V56.5365ZM66.3139 61.2424H68.6668V63.5953H66.3139V61.2424ZM66.3139 54.1836H68.6668V56.5365H66.3139V54.1836ZM68.6668 54.1836H71.0198V56.5365H68.6668V54.1836ZM71.0198 54.1836H73.3727V56.5365H71.0198V54.1836ZM73.3727 54.1836H75.7256V56.5365H73.3727V54.1836ZM73.3727 56.5365H75.7256V58.8894H73.3727V56.5365ZM73.3727 58.8894H75.7256V61.2424H73.3727V58.8894ZM71.0198 56.5365H73.3727V58.8894H71.0198V56.5365ZM68.6668 56.5365H71.0198V58.8894H68.6668V56.5365ZM71.0198 58.8894H73.3727V61.2424H71.0198V58.8894ZM78.0786 63.5953H80.4315V65.9483H78.0786V63.5953ZM80.4315 63.5953H82.7845V65.9483H80.4315V63.5953ZM82.7845 63.5953H85.1374V65.9483H82.7845V63.5953ZM85.1374 63.5953H87.4903V65.9483H85.1374V63.5953ZM87.4903 63.5953H89.8433V65.9483H87.4903V63.5953ZM87.4903 61.2424H89.8433V63.5953H87.4903V61.2424ZM85.1374 61.2424H87.4903V63.5953H85.1374V61.2424ZM89.8433 61.2424H92.1962V63.5953H89.8433V61.2424ZM92.1962 61.2424H94.5492V63.5953H92.1962V61.2424ZM92.1962 58.8894H94.5492V61.2424H92.1962V58.8894ZM94.5492 58.8894H96.9021V61.2424H94.5492V58.8894ZM94.5492 56.5365H96.9021V58.8894H94.5492V56.5365ZM94.5492 61.2424H96.9021V63.5953H94.5492V61.2424ZM87.4903 56.5365H89.8433V58.8894H87.4903V56.5365ZM87.4903 58.8894H89.8433V61.2424H87.4903V58.8894ZM89.8433 58.8894H92.1962V61.2424H89.8433V58.8894ZM89.8433 56.5365H92.1962V58.8894H89.8433V56.5365ZM92.1962 56.5365H94.5492V58.8894H92.1962V56.5365ZM94.5492 40.0659H96.9021V42.4188H94.5492V40.0659ZM94.5492 37.713H96.9021V40.0659H94.5492V37.713ZM94.5492 35.36H96.9021V37.713H94.5492V35.36ZM94.5492 33.0071H96.9021V35.36H94.5492V33.0071ZM92.1962 33.0071H94.5492V35.36H92.1962V33.0071ZM92.1962 30.6541H94.5492V33.0071H92.1962V30.6541ZM92.1962 28.3012H94.5492V30.6541H92.1962V28.3012ZM89.8433 28.3012H92.1962V30.6541H89.8433V28.3012ZM87.4903 28.3012H89.8433V30.6541H87.4903V28.3012ZM89.8433 40.0659H92.1962V42.4188H89.8433V40.0659ZM89.8433 37.713H92.1962V40.0659H89.8433V37.713ZM92.1962 37.713H94.5492V40.0659H92.1962V37.713ZM92.1962 35.36H94.5492V37.713H92.1962V35.36ZM92.1962 40.0659H94.5492V42.4188H92.1962V40.0659ZM87.4903 40.0659H89.8433V42.4188H87.4903V40.0659ZM89.8433 35.36H92.1962V37.713H89.8433V35.36ZM87.4903 35.36H89.8433V37.713H87.4903V35.36ZM87.4903 37.713H89.8433V40.0659H87.4903V37.713ZM85.1374 35.36H87.4903V37.713H85.1374V35.36ZM85.1374 33.0071H87.4903V35.36H85.1374V33.0071ZM87.4903 30.6541H89.8433V33.0071H87.4903V30.6541ZM89.8433 30.6541H92.1962V33.0071H89.8433V30.6541ZM89.8433 33.0071H92.1962V35.36H89.8433V33.0071ZM87.4903 33.0071H89.8433V35.36H87.4903V33.0071ZM85.1374 30.6541H87.4903V33.0071H85.1374V30.6541ZM85.1374 28.3012H87.4903V30.6541H85.1374V28.3012ZM85.1374 25.9483H87.4903V28.3012H85.1374V25.9483ZM87.4903 25.9483H89.8433V28.3012H87.4903V25.9483ZM82.7845 25.9483H85.1374V28.3012H82.7845V25.9483ZM80.4315 25.9483H82.7845V28.3012H80.4315V25.9483ZM78.0786 25.9483H80.4315V28.3012H78.0786V25.9483ZM75.7256 25.9483H78.0786V28.3012H75.7256V25.9483ZM75.7256 28.3012H78.0786V30.6541H75.7256V28.3012ZM73.3727 28.3012H75.7256V30.6541H73.3727V28.3012ZM73.3727 25.9483H75.7256V28.3012H73.3727V25.9483ZM71.0198 28.3012H73.3727V30.6541H71.0198V28.3012ZM68.6668 28.3012H71.0198V30.6541H68.6668V28.3012ZM68.6668 30.6541H71.0198V33.0071H68.6668V30.6541ZM68.6668 33.0071H71.0198V35.36H68.6668V33.0071ZM66.3139 33.0071H68.6668V35.36H66.3139V33.0071ZM66.3139 35.36H68.6668V37.713H66.3139V35.36ZM68.6668 35.36H71.0198V37.713H68.6668V35.36ZM71.0198 35.36H73.3727V37.713H71.0198V35.36ZM73.3727 35.36H75.7256V37.713H73.3727V35.36ZM75.7256 35.36H78.0786V37.713H75.7256V35.36ZM75.7256 33.0071H78.0786V35.36H75.7256V33.0071ZM78.0786 33.0071H80.4315V35.36H78.0786V33.0071ZM80.4315 33.0071H82.7845V35.36H80.4315V33.0071ZM82.7845 33.0071H85.1374V35.36H82.7845V33.0071ZM82.7845 28.3012H85.1374V30.6541H82.7845V28.3012ZM82.7845 30.6541H85.1374V33.0071H82.7845V30.6541ZM80.4315 30.6541H82.7845V33.0071H80.4315V30.6541ZM78.0786 30.6541H80.4315V33.0071H78.0786V30.6541ZM80.4315 28.3012H82.7845V30.6541H80.4315V28.3012ZM78.0786 28.3012H80.4315V30.6541H78.0786V28.3012ZM75.7256 30.6541H78.0786V33.0071H75.7256V30.6541ZM73.3727 30.6541H75.7256V33.0071H73.3727V30.6541ZM73.3727 33.0071H75.7256V35.36H73.3727V33.0071ZM71.0198 33.0071H73.3727V35.36H71.0198V33.0071ZM71.0198 30.6541H73.3727V33.0071H71.0198V30.6541ZM71.0198 37.713H73.3727V40.0659H71.0198V37.713ZM71.0198 40.0659H73.3727V42.4188H71.0198V40.0659ZM71.0198 42.4188H73.3727V44.7718H71.0198V42.4188ZM71.0198 44.7718H73.3727V47.1247H71.0198V44.7718ZM73.3727 44.7718H75.7256V47.1247H73.3727V44.7718ZM73.3727 47.1247H75.7256V49.4777H73.3727V47.1247ZM73.3727 42.4188H75.7256V44.7718H73.3727V42.4188ZM73.3727 40.0659H75.7256V42.4188H73.3727V40.0659ZM73.3727 37.713H75.7256V40.0659H73.3727V37.713ZM73.3727 49.4777H75.7256V51.8306H73.3727V49.4777ZM73.3727 51.8306H75.7256V54.1836H73.3727V51.8306ZM71.0198 51.8306H73.3727V54.1836H71.0198V51.8306ZM68.6668 51.8306H71.0198V54.1836H68.6668V51.8306ZM66.3139 49.4777H68.6668V51.8306H66.3139V49.4777ZM66.3139 51.8306H68.6668V54.1836H66.3139V51.8306ZM66.3139 47.1247H68.6668V49.4777H66.3139V47.1247ZM66.3139 44.7718H68.6668V47.1247H66.3139V44.7718ZM66.3139 42.4188H68.6668V44.7718H66.3139V42.4188ZM66.3139 40.0659H68.6668V42.4188H66.3139V40.0659ZM66.3139 37.713H68.6668V40.0659H66.3139V37.713ZM68.6668 40.0659H71.0198V42.4188H68.6668V40.0659ZM68.6668 42.4188H71.0198V44.7718H68.6668V42.4188ZM68.6668 44.7718H71.0198V47.1247H68.6668V44.7718ZM68.6668 47.1247H71.0198V49.4777H68.6668V47.1247ZM68.6668 49.4777H71.0198V51.8306H68.6668V49.4777ZM71.0198 49.4777H73.3727V51.8306H71.0198V49.4777ZM71.0198 47.1247H73.3727V49.4777H71.0198V47.1247ZM68.6668 37.713H71.0198V40.0659H68.6668V37.713ZM132.205 63.5953H134.558V65.9483H132.205V63.5953ZM129.852 63.5953H132.205V65.9483H129.852V63.5953ZM127.5 63.5953H129.852V65.9483H127.5V63.5953ZM127.5 65.9483H129.852V68.3012H127.5V65.9483ZM129.852 65.9483H132.205V68.3012H129.852V65.9483ZM127.5 68.3012H129.852V70.6541H127.5V68.3012ZM125.147 68.3012H127.5V70.6541H125.147V68.3012ZM129.852 68.3012H132.205V70.6541H129.852V68.3012ZM125.147 70.6541H127.5V73.0071H125.147V70.6541ZM122.794 70.6541H125.147V73.0071H122.794V70.6541ZM120.441 70.6541H122.794V73.0071H120.441V70.6541ZM118.088 70.6541H120.441V73.0071H118.088V70.6541ZM115.735 70.6541H118.088V73.0071H115.735V70.6541ZM113.382 70.6541H115.735V73.0071H113.382V70.6541ZM111.029 70.6541H113.382V73.0071H111.029V70.6541ZM111.029 68.3012H113.382V70.6541H111.029V68.3012ZM108.676 68.3012H111.029V70.6541H108.676V68.3012ZM106.323 68.3012H108.676V70.6541H106.323V68.3012ZM106.323 65.9483H108.676V68.3012H106.323V65.9483ZM108.676 65.9483H111.029V68.3012H108.676V65.9483ZM111.029 65.9483H113.382V68.3012H111.029V65.9483ZM113.382 65.9483H115.735V68.3012H113.382V65.9483ZM115.735 65.9483H118.088V68.3012H115.735V65.9483ZM118.088 65.9483H120.441V68.3012H118.088V65.9483ZM120.441 65.9483H122.794V68.3012H120.441V65.9483ZM122.794 65.9483H125.147V68.3012H122.794V65.9483ZM125.147 65.9483H127.5V68.3012H125.147V65.9483ZM122.794 68.3012H125.147V70.6541H122.794V68.3012ZM120.441 68.3012H122.794V70.6541H120.441V68.3012ZM118.088 68.3012H120.441V70.6541H118.088V68.3012ZM115.735 68.3012H118.088V70.6541H115.735V68.3012ZM113.382 68.3012H115.735V70.6541H113.382V68.3012ZM108.676 63.5953H111.029V65.9483H108.676V63.5953ZM106.323 63.5953H108.676V65.9483H106.323V63.5953ZM103.97 63.5953H106.323V65.9483H103.97V63.5953ZM108.676 61.2424H111.029V63.5953H108.676V61.2424ZM111.029 61.2424H113.382V63.5953H111.029V61.2424ZM113.382 61.2424H115.735V63.5953H113.382V61.2424ZM113.382 63.5953H115.735V65.9483H113.382V63.5953ZM111.029 63.5953H113.382V65.9483H111.029V63.5953ZM106.323 61.2424H108.676V63.5953H106.323V61.2424ZM106.323 58.8894H108.676V61.2424H106.323V58.8894ZM103.97 58.8894H106.323V61.2424H103.97V58.8894ZM103.97 56.5365H106.323V58.8894H103.97V56.5365ZM103.97 61.2424H106.323V63.5953H103.97V61.2424ZM103.97 54.1836H106.323V56.5365H103.97V54.1836ZM106.323 54.1836H108.676V56.5365H106.323V54.1836ZM108.676 54.1836H111.029V56.5365H108.676V54.1836ZM111.029 54.1836H113.382V56.5365H111.029V54.1836ZM111.029 56.5365H113.382V58.8894H111.029V56.5365ZM111.029 58.8894H113.382V61.2424H111.029V58.8894ZM108.676 56.5365H111.029V58.8894H108.676V56.5365ZM106.323 56.5365H108.676V58.8894H106.323V56.5365ZM108.676 58.8894H111.029V61.2424H108.676V58.8894ZM115.735 63.5953H118.088V65.9483H115.735V63.5953ZM118.088 63.5953H120.441V65.9483H118.088V63.5953ZM120.441 63.5953H122.794V65.9483H120.441V63.5953ZM122.794 63.5953H125.147V65.9483H122.794V63.5953ZM125.147 63.5953H127.5V65.9483H125.147V63.5953ZM125.147 61.2424H127.5V63.5953H125.147V61.2424ZM122.794 61.2424H125.147V63.5953H122.794V61.2424ZM127.5 61.2424H129.852V63.5953H127.5V61.2424ZM129.852 61.2424H132.205V63.5953H129.852V61.2424ZM129.852 58.8894H132.205V61.2424H129.852V58.8894ZM132.205 58.8894H134.558V61.2424H132.205V58.8894ZM132.205 56.5365H134.558V58.8894H132.205V56.5365ZM132.205 61.2424H134.558V63.5953H132.205V61.2424ZM132.205 54.1836H134.558V56.5365H132.205V54.1836ZM132.205 51.8306H134.558V54.1836H132.205V51.8306ZM132.205 49.4777H134.558V51.8306H132.205V49.4777ZM132.205 47.1247H134.558V49.4777H132.205V47.1247ZM132.205 44.7718H134.558V47.1247H132.205V44.7718ZM129.852 44.7718H132.205V47.1247H129.852V44.7718ZM129.852 42.4188H132.205V44.7718H129.852V42.4188ZM127.5 44.7718H129.852V47.1247H127.5V44.7718ZM125.147 44.7718H127.5V47.1247H125.147V44.7718ZM125.147 47.1247H127.5V49.4777H125.147V47.1247ZM125.147 49.4777H127.5V51.8306H125.147V49.4777ZM125.147 51.8306H127.5V54.1836H125.147V51.8306ZM125.147 54.1836H127.5V56.5365H125.147V54.1836ZM125.147 56.5365H127.5V58.8894H125.147V56.5365ZM125.147 58.8894H127.5V61.2424H125.147V58.8894ZM127.5 58.8894H129.852V61.2424H127.5V58.8894ZM127.5 56.5365H129.852V58.8894H127.5V56.5365ZM129.852 56.5365H132.205V58.8894H129.852V56.5365ZM129.852 54.1836H132.205V56.5365H129.852V54.1836ZM129.852 51.8306H132.205V54.1836H129.852V51.8306ZM129.852 49.4777H132.205V51.8306H129.852V49.4777ZM127.5 47.1247H129.852V49.4777H127.5V47.1247ZM127.5 49.4777H129.852V51.8306H127.5V49.4777ZM127.5 51.8306H129.852V54.1836H127.5V51.8306ZM127.5 54.1836H129.852V56.5365H127.5V54.1836ZM129.852 47.1247H132.205V49.4777H129.852V47.1247ZM132.205 42.4188H134.558V44.7718H132.205V42.4188ZM132.205 40.0659H134.558V42.4188H132.205V40.0659ZM132.205 37.713H134.558V40.0659H132.205V37.713ZM132.205 35.36H134.558V37.713H132.205V35.36ZM132.205 33.0071H134.558V35.36H132.205V33.0071ZM129.852 33.0071H132.205V35.36H129.852V33.0071ZM129.852 30.6541H132.205V33.0071H129.852V30.6541ZM129.852 28.3012H132.205V30.6541H129.852V28.3012ZM127.5 28.3012H129.852V30.6541H127.5V28.3012ZM125.147 28.3012H127.5V30.6541H125.147V28.3012ZM127.5 42.4188H129.852V44.7718H127.5V42.4188ZM127.5 40.0659H129.852V42.4188H127.5V40.0659ZM127.5 37.713H129.852V40.0659H127.5V37.713ZM129.852 37.713H132.205V40.0659H129.852V37.713ZM129.852 35.36H132.205V37.713H129.852V35.36ZM129.852 40.0659H132.205V42.4188H129.852V40.0659ZM125.147 42.4188H127.5V44.7718H125.147V42.4188ZM125.147 40.0659H127.5V42.4188H125.147V40.0659ZM127.5 35.36H129.852V37.713H127.5V35.36ZM125.147 35.36H127.5V37.713H125.147V35.36ZM125.147 37.713H127.5V40.0659H125.147V37.713ZM122.794 35.36H125.147V37.713H122.794V35.36ZM122.794 33.0071H125.147V35.36H122.794V33.0071ZM125.147 30.6541H127.5V33.0071H125.147V30.6541ZM127.5 30.6541H129.852V33.0071H127.5V30.6541ZM127.5 33.0071H129.852V35.36H127.5V33.0071ZM125.147 33.0071H127.5V35.36H125.147V33.0071ZM122.794 30.6541H125.147V33.0071H122.794V30.6541ZM122.794 28.3012H125.147V30.6541H122.794V28.3012ZM122.794 25.9483H125.147V28.3012H122.794V25.9483ZM125.147 25.9483H127.5V28.3012H125.147V25.9483ZM120.441 25.9483H122.794V28.3012H120.441V25.9483ZM118.088 25.9483H120.441V28.3012H118.088V25.9483ZM115.735 25.9483H118.088V28.3012H115.735V25.9483ZM113.382 25.9483H115.735V28.3012H113.382V25.9483ZM113.382 28.3012H115.735V30.6541H113.382V28.3012ZM111.029 28.3012H113.382V30.6541H111.029V28.3012ZM111.029 25.9483H113.382V28.3012H111.029V25.9483ZM108.676 28.3012H111.029V30.6541H108.676V28.3012ZM106.323 28.3012H108.676V30.6541H106.323V28.3012ZM106.323 30.6541H108.676V33.0071H106.323V30.6541ZM106.323 33.0071H108.676V35.36H106.323V33.0071ZM103.97 33.0071H106.323V35.36H103.97V33.0071ZM103.97 35.36H106.323V37.713H103.97V35.36ZM106.323 35.36H108.676V37.713H106.323V35.36ZM108.676 35.36H111.029V37.713H108.676V35.36ZM111.029 35.36H113.382V37.713H111.029V35.36ZM113.382 35.36H115.735V37.713H113.382V35.36ZM113.382 33.0071H115.735V35.36H113.382V33.0071ZM115.735 33.0071H118.088V35.36H115.735V33.0071ZM118.088 33.0071H120.441V35.36H118.088V33.0071ZM120.441 33.0071H122.794V35.36H120.441V33.0071ZM120.441 28.3012H122.794V30.6541H120.441V28.3012ZM120.441 30.6541H122.794V33.0071H120.441V30.6541ZM118.088 30.6541H120.441V33.0071H118.088V30.6541ZM115.735 30.6541H118.088V33.0071H115.735V30.6541ZM118.088 28.3012H120.441V30.6541H118.088V28.3012ZM115.735 28.3012H118.088V30.6541H115.735V28.3012ZM113.382 30.6541H115.735V33.0071H113.382V30.6541ZM111.029 30.6541H113.382V33.0071H111.029V30.6541ZM111.029 33.0071H113.382V35.36H111.029V33.0071ZM108.676 33.0071H111.029V35.36H108.676V33.0071ZM108.676 30.6541H111.029V33.0071H108.676V30.6541ZM108.676 37.713H111.029V40.0659H108.676V37.713ZM108.676 40.0659H111.029V42.4188H108.676V40.0659ZM108.676 42.4188H111.029V44.7718H108.676V42.4188ZM108.676 44.7718H111.029V47.1247H108.676V44.7718ZM111.029 44.7718H113.382V47.1247H111.029V44.7718ZM111.029 47.1247H113.382V49.4777H111.029V47.1247ZM111.029 42.4188H113.382V44.7718H111.029V42.4188ZM111.029 40.0659H113.382V42.4188H111.029V40.0659ZM111.029 37.713H113.382V40.0659H111.029V37.713ZM111.029 49.4777H113.382V51.8306H111.029V49.4777ZM111.029 51.8306H113.382V54.1836H111.029V51.8306ZM108.676 51.8306H111.029V54.1836H108.676V51.8306ZM106.323 51.8306H108.676V54.1836H106.323V51.8306ZM103.97 49.4777H106.323V51.8306H103.97V49.4777ZM103.97 51.8306H106.323V54.1836H103.97V51.8306ZM103.97 47.1247H106.323V49.4777H103.97V47.1247ZM103.97 44.7718H106.323V47.1247H103.97V44.7718ZM103.97 42.4188H106.323V44.7718H103.97V42.4188ZM103.97 40.0659H106.323V42.4188H103.97V40.0659ZM103.97 37.713H106.323V40.0659H103.97V37.713ZM106.323 40.0659H108.676V42.4188H106.323V40.0659ZM106.323 42.4188H108.676V44.7718H106.323V42.4188ZM106.323 44.7718H108.676V47.1247H106.323V44.7718ZM106.323 47.1247H108.676V49.4777H106.323V47.1247ZM106.323 49.4777H108.676V51.8306H106.323V49.4777ZM108.676 49.4777H111.029V51.8306H108.676V49.4777ZM108.676 47.1247H111.029V49.4777H108.676V47.1247ZM106.323 37.713H108.676V40.0659H106.323V37.713ZM143.979 25.9483H146.332V28.3012H143.979V25.9483ZM146.332 25.9483H148.685V28.3012H146.332V25.9483ZM148.685 25.9483H151.038V28.3012H148.685V25.9483ZM151.038 28.3012H153.391V30.6541H151.038V28.3012ZM151.038 30.6541H153.391V33.0071H151.038V30.6541ZM151.038 33.0071H153.391V35.36H151.038V33.0071ZM151.038 35.36H153.391V37.713H151.038V35.36ZM151.038 37.713H153.391V40.0659H151.038V37.713ZM151.038 40.0659H153.391V42.4188H151.038V40.0659ZM148.685 49.4777H151.038V51.8306H148.685V49.4777ZM148.685 47.1247H151.038V49.4777H148.685V47.1247ZM148.685 44.7718H151.038V47.1247H148.685V44.7718ZM146.332 42.4188H148.685V44.7718H146.332V42.4188ZM146.332 40.0659H148.685V42.4188H146.332V40.0659ZM146.332 37.713H148.685V40.0659H146.332V37.713ZM146.332 35.36H148.685V37.713H146.332V35.36ZM146.332 33.0071H148.685V35.36H146.332V33.0071ZM148.685 30.6541H151.038V33.0071H148.685V30.6541ZM148.685 28.3012H151.038V30.6541H148.685V28.3012ZM148.685 33.0071H151.038V35.36H148.685V33.0071ZM148.685 35.36H151.038V37.713H148.685V35.36ZM148.685 37.713H151.038V40.0659H148.685V37.713ZM148.685 40.0659H151.038V42.4188H148.685V40.0659ZM148.685 42.4188H151.038V44.7718H148.685V42.4188ZM143.979 30.6541H146.332V33.0071H143.979V30.6541ZM143.979 28.3012H146.332V30.6541H143.979V28.3012ZM146.332 28.3012H148.685V30.6541H146.332V28.3012ZM146.332 30.6541H148.685V33.0071H146.332V30.6541ZM143.979 35.36H146.332V37.713H143.979V35.36ZM143.979 37.713H146.332V40.0659H143.979V37.713ZM143.979 40.0659H146.332V42.4188H143.979V40.0659ZM143.979 42.4188H146.332V44.7718H143.979V42.4188ZM143.979 44.7718H146.332V47.1247H143.979V44.7718ZM143.979 47.1247H146.332V49.4777H143.979V47.1247ZM143.979 33.0071H146.332V35.36H143.979V33.0071ZM146.332 47.1247H148.685V49.4777H146.332V47.1247ZM146.332 49.4777H148.685V51.8306H146.332V49.4777ZM146.332 44.7718H148.685V47.1247H146.332V44.7718ZM143.979 49.4777H146.332V51.8306H143.979V49.4777ZM143.979 51.8306H146.332V54.1836H143.979V51.8306ZM143.979 54.1836H146.332V56.5365H143.979V54.1836ZM143.979 56.5365H146.332V58.8894H143.979V56.5365ZM143.979 58.8894H146.332V61.2424H143.979V58.8894ZM143.979 61.2424H146.332V63.5953H143.979V61.2424ZM143.979 63.5953H146.332V65.9483H143.979V63.5953ZM143.979 65.9483H146.332V68.3012H143.979V65.9483ZM143.979 68.3012H146.332V70.6541H143.979V68.3012ZM143.979 70.6541H146.332V73.0071H143.979V70.6541ZM146.332 70.6541H148.685V73.0071H146.332V70.6541ZM148.685 70.6541H151.038V73.0071H148.685V70.6541ZM148.685 51.8306H151.038V54.1836H148.685V51.8306ZM146.332 51.8306H148.685V54.1836H146.332V51.8306ZM146.332 54.1836H148.685V56.5365H146.332V54.1836ZM146.332 56.5365H148.685V58.8894H146.332V56.5365ZM146.332 58.8894H148.685V61.2424H146.332V58.8894ZM146.332 61.2424H148.685V63.5953H146.332V61.2424ZM146.332 63.5953H148.685V65.9483H146.332V63.5953ZM146.332 65.9483H148.685V68.3012H146.332V65.9483ZM146.332 68.3012H148.685V70.6541H146.332V68.3012ZM148.685 68.3012H151.038V70.6541H148.685V68.3012ZM148.685 65.9483H151.038V68.3012H148.685V65.9483ZM148.685 63.5953H151.038V65.9483H148.685V63.5953ZM148.685 61.2424H151.038V63.5953H148.685V61.2424ZM148.685 58.8894H151.038V61.2424H148.685V58.8894ZM148.685 56.5365H151.038V58.8894H148.685V56.5365ZM148.685 54.1836H151.038V56.5365H148.685V54.1836ZM153.391 30.6541H155.744V33.0071H153.391V30.6541ZM153.391 33.0071H155.744V35.36H153.391V33.0071ZM153.391 35.36H155.744V37.713H153.391V35.36ZM153.391 37.713H155.744V40.0659H153.391V37.713ZM153.391 40.0659H155.744V42.4188H153.391V40.0659ZM153.391 42.4188H155.744V44.7718H153.391V42.4188ZM155.744 33.0071H158.097V35.36H155.744V33.0071ZM155.744 35.36H158.097V37.713H155.744V35.36ZM155.744 37.713H158.097V40.0659H155.744V37.713ZM155.744 40.0659H158.097V42.4188H155.744V40.0659ZM155.744 42.4188H158.097V44.7718H155.744V42.4188ZM155.744 44.7718H158.097V47.1247H155.744V44.7718ZM158.097 35.36H160.45V37.713H158.097V35.36ZM158.097 37.713H160.45V40.0659H158.097V37.713ZM158.097 40.0659H160.45V42.4188H158.097V40.0659ZM158.097 42.4188H160.45V44.7718H158.097V42.4188ZM158.097 44.7718H160.45V47.1247H158.097V44.7718ZM158.097 47.1247H160.45V49.4777H158.097V47.1247ZM160.45 37.713H162.803V40.0659H160.45V37.713ZM160.45 40.0659H162.803V42.4188H160.45V40.0659ZM160.45 42.4188H162.803V44.7718H160.45V42.4188ZM160.45 44.7718H162.803V47.1247H160.45V44.7718ZM160.45 47.1247H162.803V49.4777H160.45V47.1247ZM160.45 49.4777H162.803V51.8306H160.45V49.4777ZM162.803 40.0659H165.156V42.4188H162.803V40.0659ZM162.803 42.4188H165.156V44.7718H162.803V42.4188ZM162.803 44.7718H165.156V47.1247H162.803V44.7718ZM162.803 47.1247H165.156V49.4777H162.803V47.1247ZM162.803 49.4777H165.156V51.8306H162.803V49.4777ZM162.803 51.8306H165.156V54.1836H162.803V51.8306ZM165.156 49.4777H167.509V51.8306H165.156V49.4777ZM165.156 47.1247H167.509V49.4777H165.156V47.1247ZM165.156 44.7718H167.509V47.1247H165.156V44.7718ZM165.156 42.4188H167.509V44.7718H165.156V42.4188ZM165.156 40.0659H167.509V42.4188H165.156V40.0659ZM165.156 37.713H167.509V40.0659H165.156V37.713ZM167.509 35.36H169.862V37.713H167.509V35.36ZM167.509 37.713H169.862V40.0659H167.509V37.713ZM167.509 40.0659H169.862V42.4188H167.509V40.0659ZM167.509 42.4188H169.862V44.7718H167.509V42.4188ZM167.509 44.7718H169.862V47.1247H167.509V44.7718ZM167.509 47.1247H169.862V49.4777H167.509V47.1247ZM169.862 33.0071H172.215V35.36H169.862V33.0071ZM169.862 35.36H172.215V37.713H169.862V35.36ZM169.862 37.713H172.215V40.0659H169.862V37.713ZM169.862 40.0659H172.215V42.4188H169.862V40.0659ZM169.862 42.4188H172.215V44.7718H169.862V42.4188ZM169.862 44.7718H172.215V47.1247H169.862V44.7718ZM172.215 30.6541H174.568V33.0071H172.215V30.6541ZM172.215 33.0071H174.568V35.36H172.215V33.0071ZM172.215 35.36H174.568V37.713H172.215V35.36ZM172.215 37.713H174.568V40.0659H172.215V37.713ZM172.215 40.0659H174.568V42.4188H172.215V40.0659ZM172.215 42.4188H174.568V44.7718H172.215V42.4188ZM176.92 25.9483H179.273V28.3012H176.92V25.9483ZM179.273 25.9483H181.626V28.3012H179.273V25.9483ZM181.626 25.9483H183.979V28.3012H181.626V25.9483ZM181.626 28.3012H183.979V30.6541H181.626V28.3012ZM181.626 30.6541H183.979V33.0071H181.626V30.6541ZM181.626 33.0071H183.979V35.36H181.626V33.0071ZM181.626 35.36H183.979V37.713H181.626V35.36ZM179.273 35.36H181.626V37.713H179.273V35.36ZM179.273 33.0071H181.626V35.36H179.273V33.0071ZM176.92 30.6541H179.273V33.0071H176.92V30.6541ZM176.92 28.3012H179.273V30.6541H176.92V28.3012ZM174.568 30.6541H176.92V33.0071H174.568V30.6541ZM174.568 33.0071H176.92V35.36H174.568V33.0071ZM174.568 35.36H176.92V37.713H174.568V35.36ZM174.568 28.3012H176.92V30.6541H174.568V28.3012ZM179.273 28.3012H181.626V30.6541H179.273V28.3012ZM179.273 30.6541H181.626V33.0071H179.273V30.6541ZM176.92 33.0071H179.273V35.36H176.92V33.0071ZM176.92 35.36H179.273V37.713H176.92V35.36ZM176.92 37.713H179.273V40.0659H176.92V37.713ZM176.92 40.0659H179.273V42.4188H176.92V40.0659ZM174.568 40.0659H176.92V42.4188H174.568V40.0659ZM174.568 37.713H176.92V40.0659H174.568V37.713ZM176.92 42.4188H179.273V44.7718H176.92V42.4188ZM176.92 44.7718H179.273V47.1247H176.92V44.7718ZM176.92 47.1247H179.273V49.4777H176.92V47.1247ZM176.92 49.4777H179.273V51.8306H176.92V49.4777ZM176.92 51.8306H179.273V54.1836H176.92V51.8306ZM176.92 54.1836H179.273V56.5365H176.92V54.1836ZM179.273 40.0659H181.626V42.4188H179.273V40.0659ZM179.273 37.713H181.626V40.0659H179.273V37.713ZM181.626 37.713H183.979V40.0659H181.626V37.713ZM181.626 40.0659H183.979V42.4188H181.626V40.0659ZM181.626 42.4188H183.979V44.7718H181.626V42.4188ZM181.626 44.7718H183.979V47.1247H181.626V44.7718ZM181.626 47.1247H183.979V49.4777H181.626V47.1247ZM181.626 49.4777H183.979V51.8306H181.626V49.4777ZM181.626 51.8306H183.979V54.1836H181.626V51.8306ZM181.626 54.1836H183.979V56.5365H181.626V54.1836ZM179.273 54.1836H181.626V56.5365H179.273V54.1836ZM179.273 51.8306H181.626V54.1836H179.273V51.8306ZM179.273 49.4777H181.626V51.8306H179.273V49.4777ZM179.273 47.1247H181.626V49.4777H179.273V47.1247ZM179.273 44.7718H181.626V47.1247H179.273V44.7718ZM179.273 42.4188H181.626V44.7718H179.273V42.4188ZM176.92 65.9483H179.273V68.3012H176.92V65.9483ZM176.92 68.3012H179.273V70.6541H176.92V68.3012ZM176.92 70.6541H179.273V73.0071H176.92V70.6541ZM179.273 70.6541H181.626V73.0071H179.273V70.6541ZM181.626 70.6541H183.979V73.0071H181.626V70.6541ZM181.626 68.3012H183.979V70.6541H181.626V68.3012ZM181.626 65.9483H183.979V68.3012H181.626V65.9483ZM181.626 63.5953H183.979V65.9483H181.626V63.5953ZM181.626 61.2424H183.979V63.5953H181.626V61.2424ZM181.626 58.8894H183.979V61.2424H181.626V58.8894ZM181.626 56.5365H183.979V58.8894H181.626V56.5365ZM179.273 56.5365H181.626V58.8894H179.273V56.5365ZM179.273 58.8894H181.626V61.2424H179.273V58.8894ZM179.273 61.2424H181.626V63.5953H179.273V61.2424ZM179.273 63.5953H181.626V65.9483H179.273V63.5953ZM179.273 65.9483H181.626V68.3012H179.273V65.9483ZM179.273 68.3012H181.626V70.6541H179.273V68.3012ZM176.92 56.5365H179.273V58.8894H176.92V56.5365ZM176.92 58.8894H179.273V61.2424H176.92V58.8894ZM176.92 61.2424H179.273V63.5953H176.92V61.2424ZM176.92 63.5953H179.273V65.9483H176.92V63.5953ZM141.626 25.9483H143.979V28.3012H141.626V25.9483ZM141.626 28.3012H143.979V30.6541H141.626V28.3012ZM141.626 30.6541H143.979V33.0071H141.626V30.6541ZM141.626 33.0071H143.979V35.36H141.626V33.0071ZM141.626 35.36H143.979V37.713H141.626V35.36ZM141.626 37.713H143.979V40.0659H141.626V37.713ZM141.626 40.0659H143.979V42.4188H141.626V40.0659ZM141.626 42.4188H143.979V44.7718H141.626V42.4188ZM141.626 44.7718H143.979V47.1247H141.626V44.7718ZM141.626 47.1247H143.979V49.4777H141.626V47.1247ZM141.626 49.4777H143.979V51.8306H141.626V49.4777ZM141.626 51.8306H143.979V54.1836H141.626V51.8306ZM141.626 54.1836H143.979V56.5365H141.626V54.1836ZM141.626 56.5365H143.979V58.8894H141.626V56.5365ZM141.626 58.8894H143.979V61.2424H141.626V58.8894ZM141.626 61.2424H143.979V63.5953H141.626V61.2424ZM141.626 63.5953H143.979V65.9483H141.626V63.5953ZM141.626 65.9483H143.979V68.3012H141.626V65.9483ZM141.626 68.3012H143.979V70.6541H141.626V68.3012ZM141.626 70.6541H143.979V73.0071H141.626V70.6541ZM183.979 70.6541H186.332V73.0071H183.979V70.6541ZM183.979 68.3012H186.332V70.6541H183.979V68.3012ZM183.979 65.9483H186.332V68.3012H183.979V65.9483ZM183.979 63.5953H186.332V65.9483H183.979V63.5953ZM183.979 61.2424H186.332V63.5953H183.979V61.2424ZM183.979 58.8894H186.332V61.2424H183.979V58.8894ZM183.979 56.5365H186.332V58.8894H183.979V56.5365ZM183.979 54.1836H186.332V56.5365H183.979V54.1836ZM183.979 51.8306H186.332V54.1836H183.979V51.8306ZM183.979 49.4777H186.332V51.8306H183.979V49.4777ZM183.979 47.1247H186.332V49.4777H183.979V47.1247ZM183.979 44.7718H186.332V47.1247H183.979V44.7718ZM183.979 42.4188H186.332V44.7718H183.979V42.4188ZM183.979 40.0659H186.332V42.4188H183.979V40.0659ZM183.979 37.713H186.332V40.0659H183.979V37.713ZM183.979 35.36H186.332V37.713H183.979V35.36ZM183.979 33.0071H186.332V35.36H183.979V33.0071ZM183.979 30.6541H186.332V33.0071H183.979V30.6541ZM183.979 28.3012H186.332V30.6541H183.979V28.3012ZM183.979 25.9483H186.332V28.3012H183.979V25.9483ZM193.423 70.6541H195.776V73.0071H193.423V70.6541ZM195.776 70.6541H198.129V73.0071H195.776V70.6541ZM198.129 70.6541H200.482V73.0071H198.129V70.6541ZM200.482 70.6541H202.835V73.0071H200.482V70.6541ZM200.482 68.3012H202.835V70.6541H200.482V68.3012ZM198.129 68.3012H200.482V70.6541H198.129V68.3012ZM195.776 68.3012H198.129V70.6541H195.776V68.3012ZM193.423 68.3012H195.776V70.6541H193.423V68.3012ZM193.423 65.9483H195.776V68.3012H193.423V65.9483ZM193.423 63.5953H195.776V65.9483H193.423V63.5953ZM193.423 61.2424H195.776V63.5953H193.423V61.2424ZM193.423 58.8894H195.776V61.2424H193.423V58.8894ZM193.423 56.5365H195.776V58.8894H193.423V56.5365ZM193.423 54.1836H195.776V56.5365H193.423V54.1836ZM193.423 51.8306H195.776V54.1836H193.423V51.8306ZM195.776 51.8306H198.129V54.1836H195.776V51.8306ZM195.776 49.4777H198.129V51.8306H195.776V49.4777ZM195.776 47.1247H198.129V49.4777H195.776V47.1247ZM198.129 47.1247H200.482V49.4777H198.129V47.1247ZM198.129 49.4777H200.482V51.8306H198.129V49.4777ZM200.482 49.4777H202.835V51.8306H200.482V49.4777ZM200.482 51.8306H202.835V54.1836H200.482V51.8306ZM200.482 54.1836H202.835V56.5365H200.482V54.1836ZM200.482 56.5365H202.835V58.8894H200.482V56.5365ZM200.482 58.8894H202.835V61.2424H200.482V58.8894ZM200.482 61.2424H202.835V63.5953H200.482V61.2424ZM200.482 63.5953H202.835V65.9483H200.482V63.5953ZM200.482 65.9483H202.835V68.3012H200.482V65.9483ZM198.129 65.9483H200.482V68.3012H198.129V65.9483ZM198.129 63.5953H200.482V65.9483H198.129V63.5953ZM198.129 61.2424H200.482V63.5953H198.129V61.2424ZM198.129 58.8894H200.482V61.2424H198.129V58.8894ZM198.129 56.5365H200.482V58.8894H198.129V56.5365ZM198.129 54.1836H200.482V56.5365H198.129V54.1836ZM198.129 51.8306H200.482V54.1836H198.129V51.8306ZM195.776 54.1836H198.129V56.5365H195.776V54.1836ZM195.776 56.5365H198.129V58.8894H195.776V56.5365ZM195.776 58.8894H198.129V61.2424H195.776V58.8894ZM195.776 61.2424H198.129V63.5953H195.776V61.2424ZM195.776 63.5953H198.129V65.9483H195.776V63.5953ZM195.776 65.9483H198.129V68.3012H195.776V65.9483ZM193.423 25.9483H195.776V28.3012H193.423V25.9483ZM193.423 28.3012H195.776V30.6541H193.423V28.3012ZM193.423 33.0071H195.776V35.36H193.423V33.0071ZM193.423 35.36H195.776V37.713H193.423V35.36ZM193.423 37.713H195.776V40.0659H193.423V37.713ZM193.423 40.0659H195.776V42.4188H193.423V40.0659ZM193.423 42.4188H195.776V44.7718H193.423V42.4188ZM193.423 44.7718H195.776V47.1247H193.423V44.7718ZM193.423 47.1247H195.776V49.4777H193.423V47.1247ZM193.423 49.4777H195.776V51.8306H193.423V49.4777ZM195.776 40.0659H198.129V42.4188H195.776V40.0659ZM195.776 37.713H198.129V40.0659H195.776V37.713ZM195.776 35.36H198.129V37.713H195.776V35.36ZM195.776 33.0071H198.129V35.36H195.776V33.0071ZM195.776 30.6541H198.129V33.0071H195.776V30.6541ZM193.423 30.6541H195.776V33.0071H193.423V30.6541ZM195.776 25.9483H198.129V28.3012H195.776V25.9483ZM198.129 25.9483H200.482V28.3012H198.129V25.9483ZM198.129 28.3012H200.482V30.6541H198.129V28.3012ZM200.482 30.6541H202.835V33.0071H200.482V30.6541ZM200.482 28.3012H202.835V30.6541H200.482V28.3012ZM200.482 25.9483H202.835V28.3012H200.482V25.9483ZM200.482 33.0071H202.835V35.36H200.482V33.0071ZM200.482 35.36H202.835V37.713H200.482V35.36ZM200.482 37.713H202.835V40.0659H200.482V37.713ZM200.482 40.0659H202.835V42.4188H200.482V40.0659ZM200.482 42.4188H202.835V44.7718H200.482V42.4188ZM200.482 44.7718H202.835V47.1247H200.482V44.7718ZM200.482 47.1247H202.835V49.4777H200.482V47.1247ZM198.129 44.7718H200.482V47.1247H198.129V44.7718ZM198.129 42.4188H200.482V44.7718H198.129V42.4188ZM198.129 40.0659H200.482V42.4188H198.129V40.0659ZM195.776 42.4188H198.129V44.7718H195.776V42.4188ZM195.776 44.7718H198.129V47.1247H195.776V44.7718ZM198.129 37.713H200.482V40.0659H198.129V37.713ZM198.129 30.6541H200.482V33.0071H198.129V30.6541ZM198.129 33.0071H200.482V35.36H198.129V33.0071ZM198.129 35.36H200.482V37.713H198.129V35.36ZM195.776 28.3012H198.129V30.6541H195.776V28.3012ZM202.835 70.6541H205.188V73.0071H202.835V70.6541ZM202.835 68.3012H205.188V70.6541H202.835V68.3012ZM202.835 65.9483H205.188V68.3012H202.835V65.9483ZM202.835 63.5953H205.188V65.9483H202.835V63.5953ZM205.188 63.5953H207.541V65.9483H205.188V63.5953ZM207.541 63.5953H209.894V65.9483H207.541V63.5953ZM209.894 63.5953H212.247V65.9483H209.894V63.5953ZM212.247 63.5953H214.6V65.9483H212.247V63.5953ZM212.247 68.3012H214.6V70.6541H212.247V68.3012ZM209.894 68.3012H212.247V70.6541H209.894V68.3012ZM207.541 68.3012H209.894V70.6541H207.541V68.3012ZM205.188 68.3012H207.541V70.6541H205.188V68.3012ZM205.188 65.9483H207.541V68.3012H205.188V65.9483ZM207.541 65.9483H209.894V68.3012H207.541V65.9483ZM209.894 65.9483H212.247V68.3012H209.894V65.9483ZM212.247 65.9483H214.6V68.3012H212.247V65.9483ZM212.247 70.6541H214.6V73.0071H212.247V70.6541ZM209.894 70.6541H212.247V73.0071H209.894V70.6541ZM207.541 70.6541H209.894V73.0071H207.541V70.6541ZM205.188 70.6541H207.541V73.0071H205.188V70.6541ZM202.835 25.9483H205.188V28.3012H202.835V25.9483ZM205.188 25.9483H207.541V28.3012H205.188V25.9483ZM207.541 25.9483H209.894V28.3012H207.541V25.9483ZM209.894 25.9483H212.247V28.3012H209.894V25.9483ZM212.247 25.9483H214.6V28.3012H212.247V25.9483ZM212.247 28.3012H214.6V30.6541H212.247V28.3012ZM212.247 30.6541H214.6V33.0071H212.247V30.6541ZM212.247 33.0071H214.6V35.36H212.247V33.0071ZM209.894 33.0071H212.247V35.36H209.894V33.0071ZM207.541 33.0071H209.894V35.36H207.541V33.0071ZM205.188 33.0071H207.541V35.36H205.188V33.0071ZM202.835 33.0071H205.188V35.36H202.835V33.0071ZM202.835 30.6541H205.188V33.0071H202.835V30.6541ZM202.835 28.3012H205.188V30.6541H202.835V28.3012ZM205.188 28.3012H207.541V30.6541H205.188V28.3012ZM207.541 28.3012H209.894V30.6541H207.541V28.3012ZM209.894 28.3012H212.247V30.6541H209.894V28.3012ZM209.894 30.6541H212.247V33.0071H209.894V30.6541ZM207.541 30.6541H209.894V33.0071H207.541V30.6541ZM205.188 30.6541H207.541V33.0071H205.188V30.6541ZM214.6 25.9483H216.953V28.3012H214.6V25.9483ZM216.953 25.9483H219.306V28.3012H216.953V25.9483ZM219.306 25.9483H221.659V28.3012H219.306V25.9483ZM219.306 28.3012H221.659V30.6541H219.306V28.3012ZM219.306 30.6541H221.659V33.0071H219.306V30.6541ZM219.306 33.0071H221.659V35.36H219.306V33.0071ZM216.953 33.0071H219.306V35.36H216.953V33.0071ZM214.6 33.0071H216.953V35.36H214.6V33.0071ZM214.6 30.6541H216.953V33.0071H214.6V30.6541ZM214.6 28.3012H216.953V30.6541H214.6V28.3012ZM216.953 28.3012H219.306V30.6541H216.953V28.3012ZM216.953 30.6541H219.306V33.0071H216.953V30.6541ZM214.6 63.5953H216.953V65.9483H214.6V63.5953ZM216.953 63.5953H219.306V65.9483H216.953V63.5953ZM219.306 63.5953H221.659V65.9483H219.306V63.5953ZM219.306 65.9483H221.659V68.3012H219.306V65.9483ZM219.306 68.3012H221.659V70.6541H219.306V68.3012ZM219.306 70.6541H221.659V73.0071H219.306V70.6541ZM216.953 70.6541H219.306V73.0071H216.953V70.6541ZM214.6 70.6541H216.953V73.0071H214.6V70.6541ZM214.6 68.3012H216.953V70.6541H214.6V68.3012ZM214.6 65.9483H216.953V68.3012H214.6V65.9483ZM216.953 65.9483H219.306V68.3012H216.953V65.9483ZM216.953 68.3012H219.306V70.6541H216.953V68.3012ZM202.835 47.1247H205.188V49.4777H202.835V47.1247ZM202.835 44.7718H205.188V47.1247H202.835V44.7718ZM202.835 49.4777H205.188V51.8306H202.835V49.4777ZM202.835 51.8306H205.188V54.1836H202.835V51.8306ZM205.188 51.8306H207.541V54.1836H205.188V51.8306ZM207.541 51.8306H209.894V54.1836H207.541V51.8306ZM209.894 51.8306H212.247V54.1836H209.894V51.8306ZM212.247 51.8306H214.6V54.1836H212.247V51.8306ZM212.247 49.4777H214.6V51.8306H212.247V49.4777ZM212.247 47.1247H214.6V49.4777H212.247V47.1247ZM212.247 44.7718H214.6V47.1247H212.247V44.7718ZM209.894 44.7718H212.247V47.1247H209.894V44.7718ZM207.541 44.7718H209.894V47.1247H207.541V44.7718ZM205.188 44.7718H207.541V47.1247H205.188V44.7718ZM205.188 47.1247H207.541V49.4777H205.188V47.1247ZM205.188 49.4777H207.541V51.8306H205.188V49.4777ZM207.541 49.4777H209.894V51.8306H207.541V49.4777ZM209.894 49.4777H212.247V51.8306H209.894V49.4777ZM209.894 47.1247H212.247V49.4777H209.894V47.1247ZM207.541 47.1247H209.894V49.4777H207.541V47.1247ZM214.6 44.7718H216.953V47.1247H214.6V44.7718ZM214.6 47.1247H216.953V49.4777H214.6V47.1247ZM214.6 49.4777H216.953V51.8306H214.6V49.4777ZM214.6 51.8306H216.953V54.1836H214.6V51.8306ZM228.736 25.9483H231.089V28.3012H228.736V25.9483ZM231.089 25.9483H233.442V28.3012H231.089V25.9483ZM233.442 25.9483H235.795V28.3012H233.442V25.9483ZM235.795 25.9483H238.148V28.3012H235.795V25.9483ZM238.148 25.9483H240.5V28.3012H238.148V25.9483ZM238.148 28.3012H240.5V30.6541H238.148V28.3012ZM238.148 30.6541H240.5V33.0071H238.148V30.6541ZM238.148 33.0071H240.5V35.36H238.148V33.0071ZM240.5 30.6541H242.853V33.0071H240.5V30.6541ZM240.5 33.0071H242.853V35.36H240.5V33.0071ZM240.5 35.36H242.853V37.713H240.5V35.36ZM240.5 37.713H242.853V40.0659H240.5V37.713ZM240.5 40.0659H242.853V42.4188H240.5V40.0659ZM240.5 42.4188H242.853V44.7718H240.5V42.4188ZM240.5 44.7718H242.853V47.1247H240.5V44.7718ZM238.148 44.7718H240.5V47.1247H238.148V44.7718ZM238.148 42.4188H240.5V44.7718H238.148V42.4188ZM238.148 40.0659H240.5V42.4188H238.148V40.0659ZM238.148 37.713H240.5V40.0659H238.148V37.713ZM238.148 35.36H240.5V37.713H238.148V35.36ZM228.736 70.6541H231.089V73.0071H228.736V70.6541ZM231.089 70.6541H233.442V73.0071H231.089V70.6541ZM233.442 70.6541H235.795V73.0071H233.442V70.6541ZM235.795 68.3012H238.148V70.6541H235.795V68.3012ZM235.795 65.9483H238.148V68.3012H235.795V65.9483ZM235.795 63.5953H238.148V65.9483H235.795V63.5953ZM233.442 63.5953H235.795V65.9483H233.442V63.5953ZM233.442 65.9483H235.795V68.3012H233.442V65.9483ZM235.795 70.6541H238.148V73.0071H235.795V70.6541ZM233.442 68.3012H235.795V70.6541H233.442V68.3012ZM231.089 68.3012H233.442V70.6541H231.089V68.3012ZM228.736 68.3012H231.089V70.6541H228.736V68.3012ZM228.736 65.9483H231.089V68.3012H228.736V65.9483ZM228.736 63.5953H231.089V65.9483H228.736V63.5953ZM231.089 63.5953H233.442V65.9483H231.089V63.5953ZM231.089 65.9483H233.442V68.3012H231.089V65.9483ZM231.089 61.2424H233.442V63.5953H231.089V61.2424ZM228.736 61.2424H231.089V63.5953H228.736V61.2424ZM228.736 58.8894H231.089V61.2424H228.736V58.8894ZM228.736 56.5365H231.089V58.8894H228.736V56.5365ZM228.736 54.1836H231.089V56.5365H228.736V54.1836ZM228.736 51.8306H231.089V54.1836H228.736V51.8306ZM228.736 49.4777H231.089V51.8306H228.736V49.4777ZM231.089 51.8306H233.442V54.1836H231.089V51.8306ZM231.089 49.4777H233.442V51.8306H231.089V49.4777ZM233.442 49.4777H235.795V51.8306H233.442V49.4777ZM233.442 51.8306H235.795V54.1836H233.442V51.8306ZM233.442 54.1836H235.795V56.5365H233.442V54.1836ZM235.795 54.1836H238.148V56.5365H235.795V54.1836ZM235.795 56.5365H238.148V58.8894H235.795V56.5365ZM235.795 58.8894H238.148V61.2424H235.795V58.8894ZM235.795 61.2424H238.148V63.5953H235.795V61.2424ZM235.795 51.8306H238.148V54.1836H235.795V51.8306ZM235.795 49.4777H238.148V51.8306H235.795V49.4777ZM231.089 54.1836H233.442V56.5365H231.089V54.1836ZM231.089 56.5365H233.442V58.8894H231.089V56.5365ZM231.089 58.8894H233.442V61.2424H231.089V58.8894ZM233.442 61.2424H235.795V63.5953H233.442V61.2424ZM233.442 58.8894H235.795V61.2424H233.442V58.8894ZM233.442 56.5365H235.795V58.8894H233.442V56.5365ZM235.795 47.1247H238.148V49.4777H235.795V47.1247ZM233.442 47.1247H235.795V49.4777H233.442V47.1247ZM231.089 47.1247H233.442V49.4777H231.089V47.1247ZM228.736 47.1247H231.089V49.4777H228.736V47.1247ZM228.736 44.7718H231.089V47.1247H228.736V44.7718ZM231.089 44.7718H233.442V47.1247H231.089V44.7718ZM233.442 44.7718H235.795V47.1247H233.442V44.7718ZM235.795 44.7718H238.148V47.1247H235.795V44.7718ZM235.795 42.4188H238.148V44.7718H235.795V42.4188ZM235.795 40.0659H238.148V42.4188H235.795V40.0659ZM233.442 40.0659H235.795V42.4188H233.442V40.0659ZM231.089 40.0659H233.442V42.4188H231.089V40.0659ZM231.089 42.4188H233.442V44.7718H231.089V42.4188ZM233.442 42.4188H235.795V44.7718H233.442V42.4188ZM228.736 42.4188H231.089V44.7718H228.736V42.4188ZM240.5 49.4777H242.853V51.8306H240.5V49.4777ZM240.5 47.1247H242.853V49.4777H240.5V47.1247ZM242.853 35.36H245.206V37.713H242.853V35.36ZM242.853 37.713H245.206V40.0659H242.853V37.713ZM242.853 40.0659H245.206V42.4188H242.853V40.0659ZM242.853 42.4188H245.206V44.7718H242.853V42.4188ZM242.853 44.7718H245.206V47.1247H242.853V44.7718ZM242.853 47.1247H245.206V49.4777H242.853V47.1247ZM242.853 49.4777H245.206V51.8306H242.853V49.4777ZM242.853 51.8306H245.206V54.1836H242.853V51.8306ZM242.853 54.1836H245.206V56.5365H242.853V54.1836ZM245.206 54.1836H247.559V56.5365H245.206V54.1836ZM245.206 51.8306H247.559V54.1836H245.206V51.8306ZM245.206 49.4777H247.559V51.8306H245.206V49.4777ZM245.206 47.1247H247.559V49.4777H245.206V47.1247ZM245.206 44.7718H247.559V47.1247H245.206V44.7718ZM245.206 42.4188H247.559V44.7718H245.206V42.4188ZM245.206 40.0659H247.559V42.4188H245.206V40.0659ZM245.206 56.5365H247.559V58.8894H245.206V56.5365ZM245.206 58.8894H247.559V61.2424H245.206V58.8894ZM247.559 58.8894H249.912V61.2424H247.559V58.8894ZM247.559 56.5365H249.912V58.8894H247.559V56.5365ZM247.559 54.1836H249.912V56.5365H247.559V54.1836ZM247.559 51.8306H249.912V54.1836H247.559V51.8306ZM247.559 49.4777H249.912V51.8306H247.559V49.4777ZM247.559 47.1247H249.912V49.4777H247.559V47.1247ZM247.559 44.7718H249.912V47.1247H247.559V44.7718ZM247.559 61.2424H249.912V63.5953H247.559V61.2424ZM247.559 63.5953H249.912V65.9483H247.559V63.5953ZM249.912 63.5953H252.265V65.9483H249.912V63.5953ZM249.912 61.2424H252.265V63.5953H249.912V61.2424ZM249.912 58.8894H252.265V61.2424H249.912V58.8894ZM249.912 56.5365H252.265V58.8894H249.912V56.5365ZM249.912 54.1836H252.265V56.5365H249.912V54.1836ZM249.912 51.8306H252.265V54.1836H249.912V51.8306ZM249.912 49.4777H252.265V51.8306H249.912V49.4777ZM249.912 65.9483H252.265V68.3012H249.912V65.9483ZM249.912 68.3012H252.265V70.6541H249.912V68.3012ZM252.265 68.3012H254.618V70.6541H252.265V68.3012ZM252.265 65.9483H254.618V68.3012H252.265V65.9483ZM252.265 63.5953H254.618V65.9483H252.265V63.5953ZM252.265 61.2424H254.618V63.5953H252.265V61.2424ZM252.265 58.8894H254.618V61.2424H252.265V58.8894ZM252.265 56.5365H254.618V58.8894H252.265V56.5365ZM252.265 54.1836H254.618V56.5365H252.265V54.1836ZM252.265 70.6541H254.618V73.0071H252.265V70.6541ZM228.736 28.3012H231.089V30.6541H228.736V28.3012ZM228.736 30.6541H231.089V33.0071H228.736V30.6541ZM228.736 33.0071H231.089V35.36H228.736V33.0071ZM228.736 35.36H231.089V37.713H228.736V35.36ZM228.736 37.713H231.089V40.0659H228.736V37.713ZM228.736 40.0659H231.089V42.4188H228.736V40.0659ZM233.442 37.713H235.795V40.0659H233.442V37.713ZM235.795 37.713H238.148V40.0659H235.795V37.713ZM235.795 35.36H238.148V37.713H235.795V35.36ZM235.795 33.0071H238.148V35.36H235.795V33.0071ZM235.795 30.6541H238.148V33.0071H235.795V30.6541ZM233.442 30.6541H235.795V33.0071H233.442V30.6541ZM233.442 28.3012H235.795V30.6541H233.442V28.3012ZM231.089 28.3012H233.442V30.6541H231.089V28.3012ZM231.089 30.6541H233.442V33.0071H231.089V30.6541ZM231.089 33.0071H233.442V35.36H231.089V33.0071ZM231.089 35.36H233.442V37.713H231.089V35.36ZM231.089 37.713H233.442V40.0659H231.089V37.713ZM233.442 35.36H235.795V37.713H233.442V35.36ZM233.442 33.0071H235.795V35.36H233.442V33.0071ZM235.795 28.3012H238.148V30.6541H235.795V28.3012ZM254.618 25.9483H256.971V28.3012H254.618V25.9483ZM256.971 25.9483H259.324V28.3012H256.971V25.9483ZM259.324 25.9483H261.677V28.3012H259.324V25.9483ZM261.677 25.9483H264.03V28.3012H261.677V25.9483ZM256.971 28.3012H259.324V30.6541H256.971V28.3012ZM254.618 28.3012H256.971V30.6541H254.618V28.3012ZM254.618 30.6541H256.971V33.0071H254.618V30.6541ZM254.618 33.0071H256.971V35.36H254.618V33.0071ZM254.618 35.36H256.971V37.713H254.618V35.36ZM254.618 37.713H256.971V40.0659H254.618V37.713ZM254.618 40.0659H256.971V42.4188H254.618V40.0659ZM256.971 40.0659H259.324V42.4188H256.971V40.0659ZM256.971 42.4188H259.324V44.7718H256.971V42.4188ZM256.971 44.7718H259.324V47.1247H256.971V44.7718ZM256.971 47.1247H259.324V49.4777H256.971V47.1247ZM256.971 49.4777H259.324V51.8306H256.971V49.4777ZM256.971 51.8306H259.324V54.1836H256.971V51.8306ZM256.971 54.1836H259.324V56.5365H256.971V54.1836ZM254.618 47.1247H256.971V49.4777H254.618V47.1247ZM254.618 44.7718H256.971V47.1247H254.618V44.7718ZM254.618 42.4188H256.971V44.7718H254.618V42.4188ZM254.618 49.4777H256.971V51.8306H254.618V49.4777ZM254.618 51.8306H256.971V54.1836H254.618V51.8306ZM254.618 54.1836H256.971V56.5365H254.618V54.1836ZM254.618 56.5365H256.971V58.8894H254.618V56.5365ZM254.618 58.8894H256.971V61.2424H254.618V58.8894ZM254.618 61.2424H256.971V63.5953H254.618V61.2424ZM254.618 63.5953H256.971V65.9483H254.618V63.5953ZM254.618 65.9483H256.971V68.3012H254.618V65.9483ZM254.618 68.3012H256.971V70.6541H254.618V68.3012ZM254.618 70.6541H256.971V73.0071H254.618V70.6541ZM256.971 70.6541H259.324V73.0071H256.971V70.6541ZM259.324 70.6541H261.677V73.0071H259.324V70.6541ZM261.677 70.6541H264.03V73.0071H261.677V70.6541ZM261.677 68.3012H264.03V70.6541H261.677V68.3012ZM261.677 65.9483H264.03V68.3012H261.677V65.9483ZM259.324 65.9483H261.677V68.3012H259.324V65.9483ZM259.324 63.5953H261.677V65.9483H259.324V63.5953ZM259.324 61.2424H261.677V63.5953H259.324V61.2424ZM256.971 58.8894H259.324V61.2424H256.971V58.8894ZM256.971 61.2424H259.324V63.5953H256.971V61.2424ZM256.971 63.5953H259.324V65.9483H256.971V63.5953ZM256.971 65.9483H259.324V68.3012H256.971V65.9483ZM256.971 68.3012H259.324V70.6541H256.971V68.3012ZM259.324 68.3012H261.677V70.6541H259.324V68.3012ZM261.677 63.5953H264.03V65.9483H261.677V63.5953ZM259.324 58.8894H261.677V61.2424H259.324V58.8894ZM256.971 56.5365H259.324V58.8894H256.971V56.5365ZM261.677 28.3012H264.03V30.6541H261.677V28.3012ZM261.677 30.6541H264.03V33.0071H261.677V30.6541ZM261.677 33.0071H264.03V35.36H261.677V33.0071ZM261.677 35.36H264.03V37.713H261.677V35.36ZM261.677 37.713H264.03V40.0659H261.677V37.713ZM261.677 40.0659H264.03V42.4188H261.677V40.0659ZM261.677 42.4188H264.03V44.7718H261.677V42.4188ZM261.677 44.7718H264.03V47.1247H261.677V44.7718ZM261.677 47.1247H264.03V49.4777H261.677V47.1247ZM261.677 49.4777H264.03V51.8306H261.677V49.4777ZM261.677 51.8306H264.03V54.1836H261.677V51.8306ZM261.677 54.1836H264.03V56.5365H261.677V54.1836ZM261.677 56.5365H264.03V58.8894H261.677V56.5365ZM261.677 58.8894H264.03V61.2424H261.677V58.8894ZM261.677 61.2424H264.03V63.5953H261.677V61.2424ZM259.324 56.5365H261.677V58.8894H259.324V56.5365ZM259.324 54.1836H261.677V56.5365H259.324V54.1836ZM259.324 51.8306H261.677V54.1836H259.324V51.8306ZM259.324 49.4777H261.677V51.8306H259.324V49.4777ZM259.324 47.1247H261.677V49.4777H259.324V47.1247ZM259.324 44.7718H261.677V47.1247H259.324V44.7718ZM259.324 42.4188H261.677V44.7718H259.324V42.4188ZM259.324 40.0659H261.677V42.4188H259.324V40.0659ZM259.324 37.713H261.677V40.0659H259.324V37.713ZM259.324 35.36H261.677V37.713H259.324V35.36ZM259.324 33.0071H261.677V35.36H259.324V33.0071ZM259.324 30.6541H261.677V33.0071H259.324V30.6541ZM259.324 28.3012H261.677V30.6541H259.324V28.3012ZM256.971 30.6541H259.324V33.0071H256.971V30.6541ZM256.971 33.0071H259.324V35.36H256.971V33.0071ZM256.971 35.36H259.324V37.713H256.971V35.36ZM256.971 37.713H259.324V40.0659H256.971V37.713ZM273.432 25.9483H275.785V28.3012H273.432V25.9483ZM275.785 25.9483H278.138V28.3012H275.785V25.9483ZM278.138 25.9483H280.491V28.3012H278.138V25.9483ZM280.491 25.9483H282.844V28.3012H280.491V25.9483ZM282.844 25.9483H285.197V28.3012H282.844V25.9483ZM285.197 25.9483H287.55V28.3012H285.197V25.9483ZM287.55 25.9483H289.903V28.3012H287.55V25.9483ZM289.903 25.9483H292.256V28.3012H289.903V25.9483ZM292.256 25.9483H294.609V28.3012H292.256V25.9483ZM294.609 25.9483H296.962V28.3012H294.609V25.9483ZM296.962 25.9483H299.315V28.3012H296.962V25.9483ZM299.315 25.9483H301.668V28.3012H299.315V25.9483ZM301.668 25.9483H304.021V28.3012H301.668V25.9483ZM301.668 28.3012H304.021V30.6541H301.668V28.3012ZM299.315 28.3012H301.668V30.6541H299.315V28.3012ZM296.962 28.3012H299.315V30.6541H296.962V28.3012ZM294.609 28.3012H296.962V30.6541H294.609V28.3012ZM292.256 28.3012H294.609V30.6541H292.256V28.3012ZM289.903 28.3012H292.256V30.6541H289.903V28.3012ZM287.55 28.3012H289.903V30.6541H287.55V28.3012ZM285.197 28.3012H287.55V30.6541H285.197V28.3012ZM282.844 28.3012H285.197V30.6541H282.844V28.3012ZM280.491 28.3012H282.844V30.6541H280.491V28.3012ZM278.138 28.3012H280.491V30.6541H278.138V28.3012ZM275.785 28.3012H278.138V30.6541H275.785V28.3012ZM273.432 28.3012H275.785V30.6541H273.432V28.3012ZM273.432 30.6541H275.785V33.0071H273.432V30.6541ZM275.785 30.6541H278.138V33.0071H275.785V30.6541ZM278.138 30.6541H280.491V33.0071H278.138V30.6541ZM280.491 30.6541H282.844V33.0071H280.491V30.6541ZM282.844 30.6541H285.197V33.0071H282.844V30.6541ZM285.197 30.6541H287.55V33.0071H285.197V30.6541ZM287.55 30.6541H289.903V33.0071H287.55V30.6541ZM289.903 30.6541H292.256V33.0071H289.903V30.6541ZM292.256 30.6541H294.609V33.0071H292.256V30.6541ZM294.609 30.6541H296.962V33.0071H294.609V30.6541ZM296.962 30.6541H299.315V33.0071H296.962V30.6541ZM299.315 30.6541H301.668V33.0071H299.315V30.6541ZM301.668 30.6541H304.021V33.0071H301.668V30.6541ZM301.668 33.0071H304.021V35.36H301.668V33.0071ZM299.315 33.0071H301.668V35.36H299.315V33.0071ZM296.962 33.0071H299.315V35.36H296.962V33.0071ZM294.609 33.0071H296.962V35.36H294.609V33.0071ZM292.256 33.0071H294.609V35.36H292.256V33.0071ZM275.785 33.0071H278.138V35.36H275.785V33.0071ZM273.432 33.0071H275.785V35.36H273.432V33.0071ZM278.138 33.0071H280.491V35.36H278.138V33.0071ZM280.491 33.0071H282.844V35.36H280.491V33.0071ZM282.844 33.0071H285.197V35.36H282.844V33.0071ZM285.197 33.0071H287.55V35.36H285.197V33.0071ZM287.55 33.0071H289.903V35.36H287.55V33.0071ZM289.903 33.0071H292.256V35.36H289.903V33.0071ZM301.668 35.36H304.021V37.713H301.668V35.36ZM299.315 35.36H301.668V37.713H299.315V35.36ZM296.962 35.36H299.315V37.713H296.962V35.36ZM294.609 35.36H296.962V37.713H294.609V35.36ZM292.256 35.36H294.609V37.713H292.256V35.36ZM292.256 37.713H294.609V40.0659H292.256V37.713ZM294.609 37.713H296.962V40.0659H294.609V37.713ZM296.962 37.713H299.315V40.0659H296.962V37.713ZM299.315 37.713H301.668V40.0659H299.315V37.713ZM296.962 40.0659H299.315V42.4188H296.962V40.0659ZM296.962 42.4188H299.315V44.7718H296.962V42.4188ZM294.609 42.4188H296.962V44.7718H294.609V42.4188ZM294.609 40.0659H296.962V42.4188H294.609V40.0659ZM292.256 40.0659H294.609V42.4188H292.256V40.0659ZM289.903 40.0659H292.256V42.4188H289.903V40.0659ZM287.55 42.4188H289.903V44.7718H287.55V42.4188ZM289.903 42.4188H292.256V44.7718H289.903V42.4188ZM292.256 42.4188H294.609V44.7718H292.256V42.4188ZM294.609 44.7718H296.962V47.1247H294.609V44.7718ZM292.256 44.7718H294.609V47.1247H292.256V44.7718ZM289.903 44.7718H292.256V47.1247H289.903V44.7718ZM287.55 44.7718H289.903V47.1247H287.55V44.7718ZM285.197 44.7718H287.55V47.1247H285.197V44.7718ZM285.197 47.1247H287.55V49.4777H285.197V47.1247ZM282.844 47.1247H285.197V49.4777H282.844V47.1247ZM280.491 49.4777H282.844V51.8306H280.491V49.4777ZM282.844 49.4777H285.197V51.8306H282.844V49.4777ZM285.197 49.4777H287.55V51.8306H285.197V49.4777ZM287.55 49.4777H289.903V51.8306H287.55V49.4777ZM292.256 47.1247H294.609V49.4777H292.256V47.1247ZM289.903 47.1247H292.256V49.4777H289.903V47.1247ZM287.55 47.1247H289.903V49.4777H287.55V47.1247ZM289.903 49.4777H292.256V51.8306H289.903V49.4777ZM287.55 51.8306H289.903V54.1836H287.55V51.8306ZM285.197 51.8306H287.55V54.1836H285.197V51.8306ZM282.844 51.8306H285.197V54.1836H282.844V51.8306ZM280.491 51.8306H282.844V54.1836H280.491V51.8306ZM278.138 51.8306H280.491V54.1836H278.138V51.8306ZM278.138 54.1836H280.491V56.5365H278.138V54.1836ZM275.785 54.1836H278.138V56.5365H275.785V54.1836ZM275.785 56.5365H278.138V58.8894H275.785V56.5365ZM278.138 56.5365H280.491V58.8894H278.138V56.5365ZM280.491 56.5365H282.844V58.8894H280.491V56.5365ZM282.844 56.5365H285.197V58.8894H282.844V56.5365ZM282.844 54.1836H285.197V56.5365H282.844V54.1836ZM285.197 54.1836H287.55V56.5365H285.197V54.1836ZM280.491 54.1836H282.844V56.5365H280.491V54.1836ZM273.432 58.8894H275.785V61.2424H273.432V58.8894ZM275.785 58.8894H278.138V61.2424H275.785V58.8894ZM278.138 58.8894H280.491V61.2424H278.138V58.8894ZM280.491 58.8894H282.844V61.2424H280.491V58.8894ZM280.491 61.2424H282.844V63.5953H280.491V61.2424ZM278.138 61.2424H280.491V63.5953H278.138V61.2424ZM275.785 61.2424H278.138V63.5953H275.785V61.2424ZM273.432 61.2424H275.785V63.5953H273.432V61.2424ZM271.08 61.2424H273.432V63.5953H271.08V61.2424ZM271.08 63.5953H273.432V65.9483H271.08V63.5953ZM271.08 65.9483H273.432V68.3012H271.08V65.9483ZM271.08 68.3012H273.432V70.6541H271.08V68.3012ZM273.432 68.3012H275.785V70.6541H273.432V68.3012ZM273.432 70.6541H275.785V73.0071H273.432V70.6541ZM271.08 70.6541H273.432V73.0071H271.08V70.6541ZM275.785 70.6541H278.138V73.0071H275.785V70.6541ZM278.138 70.6541H280.491V73.0071H278.138V70.6541ZM280.491 70.6541H282.844V73.0071H280.491V70.6541ZM282.844 70.6541H285.197V73.0071H282.844V70.6541ZM285.197 68.3012H287.55V70.6541H285.197V68.3012ZM287.55 68.3012H289.903V70.6541H287.55V68.3012ZM289.903 68.3012H292.256V70.6541H289.903V68.3012ZM292.256 68.3012H294.609V70.6541H292.256V68.3012ZM289.903 70.6541H292.256V73.0071H289.903V70.6541ZM287.55 70.6541H289.903V73.0071H287.55V70.6541ZM285.197 70.6541H287.55V73.0071H285.197V70.6541ZM292.256 70.6541H294.609V73.0071H292.256V70.6541ZM294.609 70.6541H296.962V73.0071H294.609V70.6541ZM296.962 70.6541H299.315V73.0071H296.962V70.6541ZM299.315 70.6541H301.668V73.0071H299.315V70.6541ZM299.315 68.3012H301.668V70.6541H299.315V68.3012ZM299.315 65.9483H301.668V68.3012H299.315V65.9483ZM299.315 63.5953H301.668V65.9483H299.315V63.5953ZM296.962 63.5953H299.315V65.9483H296.962V63.5953ZM294.609 63.5953H296.962V65.9483H294.609V63.5953ZM292.256 63.5953H294.609V65.9483H292.256V63.5953ZM289.903 63.5953H292.256V65.9483H289.903V63.5953ZM287.55 63.5953H289.903V65.9483H287.55V63.5953ZM285.197 63.5953H287.55V65.9483H285.197V63.5953ZM282.844 63.5953H285.197V65.9483H282.844V63.5953ZM280.491 63.5953H282.844V65.9483H280.491V63.5953ZM278.138 63.5953H280.491V65.9483H278.138V63.5953ZM275.785 63.5953H278.138V65.9483H275.785V63.5953ZM273.432 63.5953H275.785V65.9483H273.432V63.5953ZM273.432 65.9483H275.785V68.3012H273.432V65.9483ZM275.785 65.9483H278.138V68.3012H275.785V65.9483ZM278.138 65.9483H280.491V68.3012H278.138V65.9483ZM280.491 65.9483H282.844V68.3012H280.491V65.9483ZM282.844 65.9483H285.197V68.3012H282.844V65.9483ZM285.197 65.9483H287.55V68.3012H285.197V65.9483ZM287.55 65.9483H289.903V68.3012H287.55V65.9483ZM289.903 65.9483H292.256V68.3012H289.903V65.9483ZM292.256 65.9483H294.609V68.3012H292.256V65.9483ZM294.609 65.9483H296.962V68.3012H294.609V65.9483ZM296.962 65.9483H299.315V68.3012H296.962V65.9483ZM296.962 68.3012H299.315V70.6541H296.962V68.3012ZM294.609 68.3012H296.962V70.6541H294.609V68.3012ZM278.138 68.3012H280.491V70.6541H278.138V68.3012ZM275.785 68.3012H278.138V70.6541H275.785V68.3012ZM280.491 68.3012H282.844V70.6541H280.491V68.3012ZM282.844 68.3012H285.197V70.6541H282.844V68.3012ZM301.668 37.713H304.021V40.0659H301.668V37.713ZM299.315 40.0659H301.668V42.4188H299.315V40.0659ZM271.08 58.8894H273.432V61.2424H271.08V58.8894ZM273.432 56.5365H275.785V58.8894H273.432V56.5365ZM271.08 25.9483H273.432V28.3012H271.08V25.9483ZM271.08 28.3012H273.432V30.6541H271.08V28.3012ZM271.08 30.6541H273.432V33.0071H271.08V30.6541ZM271.08 33.0071H273.432V35.36H271.08V33.0071ZM301.668 63.5953H304.021V65.9483H301.668V63.5953ZM301.668 65.9483H304.021V68.3012H301.668V65.9483ZM301.668 68.3012H304.021V70.6541H301.668V68.3012ZM301.668 70.6541H304.021V73.0071H301.668V70.6541ZM311.08 70.6541H313.432V73.0071H311.08V70.6541ZM313.432 70.6541H315.785V73.0071H313.432V70.6541ZM315.785 70.6541H318.138V73.0071H315.785V70.6541ZM318.138 70.6541H320.491V73.0071H318.138V70.6541ZM318.138 68.3012H320.491V70.6541H318.138V68.3012ZM318.138 65.9483H320.491V68.3012H318.138V65.9483ZM318.138 63.5953H320.491V65.9483H318.138V63.5953ZM318.138 61.2424H320.491V63.5953H318.138V61.2424ZM315.785 61.2424H318.138V63.5953H315.785V61.2424ZM313.432 61.2424H315.785V63.5953H313.432V61.2424ZM313.432 63.5953H315.785V65.9483H313.432V63.5953ZM313.432 65.9483H315.785V68.3012H313.432V65.9483ZM311.08 65.9483H313.432V68.3012H311.08V65.9483ZM311.08 68.3012H313.432V70.6541H311.08V68.3012ZM313.432 68.3012H315.785V70.6541H313.432V68.3012ZM315.785 68.3012H318.138V70.6541H315.785V68.3012ZM315.785 65.9483H318.138V68.3012H315.785V65.9483ZM315.785 63.5953H318.138V65.9483H315.785V63.5953ZM311.08 63.5953H313.432V65.9483H311.08V63.5953ZM311.08 61.2424H313.432V63.5953H311.08V61.2424ZM311.08 58.8894H313.432V61.2424H311.08V58.8894ZM311.08 56.5365H313.432V58.8894H311.08V56.5365ZM311.08 54.1836H313.432V56.5365H311.08V54.1836ZM311.08 51.8306H313.432V54.1836H311.08V51.8306ZM311.08 49.4777H313.432V51.8306H311.08V49.4777ZM311.08 47.1247H313.432V49.4777H311.08V47.1247ZM311.08 44.7718H313.432V47.1247H311.08V44.7718ZM311.08 42.4188H313.432V44.7718H311.08V42.4188ZM311.08 40.0659H313.432V42.4188H311.08V40.0659ZM313.432 40.0659H315.785V42.4188H313.432V40.0659ZM315.785 40.0659H318.138V42.4188H315.785V40.0659ZM315.785 42.4188H318.138V44.7718H315.785V42.4188ZM318.138 42.4188H320.491V44.7718H318.138V42.4188ZM318.138 44.7718H320.491V47.1247H318.138V44.7718ZM318.138 47.1247H320.491V49.4777H318.138V47.1247ZM318.138 49.4777H320.491V51.8306H318.138V49.4777ZM318.138 54.1836H320.491V56.5365H318.138V54.1836ZM318.138 56.5365H320.491V58.8894H318.138V56.5365ZM318.138 58.8894H320.491V61.2424H318.138V58.8894ZM315.785 58.8894H318.138V61.2424H315.785V58.8894ZM315.785 56.5365H318.138V58.8894H315.785V56.5365ZM315.785 54.1836H318.138V56.5365H315.785V54.1836ZM315.785 51.8306H318.138V54.1836H315.785V51.8306ZM315.785 49.4777H318.138V51.8306H315.785V49.4777ZM315.785 47.1247H318.138V49.4777H315.785V47.1247ZM315.785 44.7718H318.138V47.1247H315.785V44.7718ZM313.432 44.7718H315.785V47.1247H313.432V44.7718ZM313.432 42.4188H315.785V44.7718H313.432V42.4188ZM313.432 47.1247H315.785V49.4777H313.432V47.1247ZM313.432 49.4777H315.785V51.8306H313.432V49.4777ZM313.432 54.1836H315.785V56.5365H313.432V54.1836ZM313.432 56.5365H315.785V58.8894H313.432V56.5365ZM313.432 58.8894H315.785V61.2424H313.432V58.8894ZM313.432 51.8306H315.785V54.1836H313.432V51.8306ZM318.138 51.8306H320.491V54.1836H318.138V51.8306ZM320.491 51.8306H322.844V54.1836H320.491V51.8306ZM325.197 51.8306H327.55V54.1836H325.197V51.8306ZM327.55 51.8306H329.903V54.1836H327.55V51.8306ZM329.903 51.8306H332.256V54.1836H329.903V51.8306ZM332.256 51.8306H334.609V54.1836H332.256V51.8306ZM334.609 51.8306H336.962V54.1836H334.609V51.8306ZM336.962 51.8306H339.315V54.1836H336.962V51.8306ZM336.962 54.1836H339.315V56.5365H336.962V54.1836ZM336.962 56.5365H339.315V58.8894H336.962V56.5365ZM336.962 58.8894H339.315V61.2424H336.962V58.8894ZM334.609 58.8894H336.962V61.2424H334.609V58.8894ZM332.256 58.8894H334.609V61.2424H332.256V58.8894ZM329.903 58.8894H332.256V61.2424H329.903V58.8894ZM327.55 58.8894H329.903V61.2424H327.55V58.8894ZM325.197 56.5365H327.55V58.8894H325.197V56.5365ZM322.844 56.5365H325.197V58.8894H322.844V56.5365ZM320.491 56.5365H322.844V58.8894H320.491V56.5365ZM320.491 54.1836H322.844V56.5365H320.491V54.1836ZM322.844 51.8306H325.197V54.1836H322.844V51.8306ZM322.844 54.1836H325.197V56.5365H322.844V54.1836ZM320.491 58.8894H322.844V61.2424H320.491V58.8894ZM322.844 58.8894H325.197V61.2424H322.844V58.8894ZM325.197 58.8894H327.55V61.2424H325.197V58.8894ZM329.903 56.5365H332.256V58.8894H329.903V56.5365ZM329.903 54.1836H332.256V56.5365H329.903V54.1836ZM327.55 54.1836H329.903V56.5365H327.55V54.1836ZM325.197 54.1836H327.55V56.5365H325.197V54.1836ZM327.55 56.5365H329.903V58.8894H327.55V56.5365ZM332.256 54.1836H334.609V56.5365H332.256V54.1836ZM334.609 54.1836H336.962V56.5365H334.609V54.1836ZM334.609 56.5365H336.962V58.8894H334.609V56.5365ZM332.256 56.5365H334.609V58.8894H332.256V56.5365ZM334.609 61.2424H336.962V63.5953H334.609V61.2424ZM334.609 63.5953H336.962V65.9483H334.609V63.5953ZM334.609 65.9483H336.962V68.3012H334.609V65.9483ZM334.609 68.3012H336.962V70.6541H334.609V68.3012ZM336.962 68.3012H339.315V70.6541H336.962V68.3012ZM336.962 70.6541H339.315V73.0071H336.962V70.6541ZM339.315 70.6541H341.668V73.0071H339.315V70.6541ZM334.609 70.6541H336.962V73.0071H334.609V70.6541ZM339.315 56.5365H341.668V58.8894H339.315V56.5365ZM339.315 54.1836H341.668V56.5365H339.315V54.1836ZM339.315 51.8306H341.668V54.1836H339.315V51.8306ZM339.315 49.4777H341.668V51.8306H339.315V49.4777ZM339.315 40.0659H341.668V42.4188H339.315V40.0659ZM339.315 42.4188H341.668V44.7718H339.315V42.4188ZM336.962 42.4188H339.315V44.7718H336.962V42.4188ZM336.962 44.7718H339.315V47.1247H336.962V44.7718ZM336.962 47.1247H339.315V49.4777H336.962V47.1247ZM336.962 49.4777H339.315V51.8306H336.962V49.4777ZM339.315 47.1247H341.668V49.4777H339.315V47.1247ZM339.315 44.7718H341.668V47.1247H339.315V44.7718ZM334.609 42.4188H336.962V44.7718H334.609V42.4188ZM334.609 44.7718H336.962V47.1247H334.609V44.7718ZM334.609 47.1247H336.962V49.4777H334.609V47.1247ZM334.609 49.4777H336.962V51.8306H334.609V49.4777ZM336.962 61.2424H339.315V63.5953H336.962V61.2424ZM336.962 63.5953H339.315V65.9483H336.962V63.5953ZM336.962 65.9483H339.315V68.3012H336.962V65.9483ZM339.315 65.9483H341.668V68.3012H339.315V65.9483ZM339.315 63.5953H341.668V65.9483H339.315V63.5953ZM339.315 61.2424H341.668V63.5953H339.315V61.2424ZM339.315 58.8894H341.668V61.2424H339.315V58.8894ZM339.315 68.3012H341.668V70.6541H339.315V68.3012ZM313.432 37.713H315.785V40.0659H313.432V37.713ZM315.785 37.713H318.138V40.0659H315.785V37.713ZM318.138 37.713H320.491V40.0659H318.138V37.713ZM320.491 37.713H322.844V40.0659H320.491V37.713ZM322.844 37.713H325.197V40.0659H322.844V37.713ZM327.55 37.713H329.903V40.0659H327.55V37.713ZM329.903 37.713H332.256V40.0659H329.903V37.713ZM332.256 37.713H334.609V40.0659H332.256V37.713ZM334.609 37.713H336.962V40.0659H334.609V37.713ZM336.962 37.713H339.315V40.0659H336.962V37.713ZM336.962 40.0659H339.315V42.4188H336.962V40.0659ZM334.609 40.0659H336.962V42.4188H334.609V40.0659ZM332.256 40.0659H334.609V42.4188H332.256V40.0659ZM329.903 40.0659H332.256V42.4188H329.903V40.0659ZM318.138 40.0659H320.491V42.4188H318.138V40.0659ZM320.491 40.0659H322.844V42.4188H320.491V40.0659ZM315.785 35.36H318.138V37.713H315.785V35.36ZM318.138 35.36H320.491V37.713H318.138V35.36ZM322.844 35.36H325.197V37.713H322.844V35.36ZM325.197 35.36H327.55V37.713H325.197V35.36ZM327.55 35.36H329.903V37.713H327.55V35.36ZM329.903 35.36H332.256V37.713H329.903V35.36ZM332.256 35.36H334.609V37.713H332.256V35.36ZM334.609 35.36H336.962V37.713H334.609V35.36ZM336.962 35.36H339.315V37.713H336.962V35.36ZM334.609 33.0071H336.962V35.36H334.609V33.0071ZM332.256 33.0071H334.609V35.36H332.256V33.0071ZM329.903 33.0071H332.256V35.36H329.903V33.0071ZM327.55 33.0071H329.903V35.36H327.55V33.0071ZM325.197 33.0071H327.55V35.36H325.197V33.0071ZM320.491 35.36H322.844V37.713H320.491V35.36ZM318.138 33.0071H320.491V35.36H318.138V33.0071ZM320.491 33.0071H322.844V35.36H320.491V33.0071ZM322.844 33.0071H325.197V35.36H322.844V33.0071ZM322.844 30.6541H325.197V33.0071H322.844V30.6541ZM320.491 30.6541H322.844V33.0071H320.491V30.6541ZM325.197 30.6541H327.55V33.0071H325.197V30.6541ZM327.55 30.6541H329.903V33.0071H327.55V30.6541ZM329.903 30.6541H332.256V33.0071H329.903V30.6541ZM332.256 30.6541H334.609V33.0071H332.256V30.6541ZM322.844 28.3012H325.197V30.6541H322.844V28.3012ZM325.197 28.3012H327.55V30.6541H325.197V28.3012ZM327.55 28.3012H329.903V30.6541H327.55V28.3012ZM329.903 28.3012H332.256V30.6541H329.903V28.3012ZM325.197 25.9483H327.55V28.3012H325.197V25.9483ZM327.55 25.9483H329.903V28.3012H327.55V25.9483ZM339.315 37.713H341.668V40.0659H339.315V37.713ZM311.08 37.713H313.432V40.0659H311.08V37.713ZM313.432 35.36H315.785V37.713H313.432V35.36ZM315.785 33.0071H318.138V35.36H315.785V33.0071ZM318.138 30.6541H320.491V33.0071H318.138V30.6541ZM320.491 28.3012H322.844V30.6541H320.491V28.3012ZM322.844 25.9483H325.197V28.3012H322.844V25.9483ZM332.256 42.4188H334.609V44.7718H332.256V42.4188ZM332.256 44.7718H334.609V47.1247H332.256V44.7718ZM332.256 47.1247H334.609V49.4777H332.256V47.1247ZM332.256 49.4777H334.609V51.8306H332.256V49.4777ZM332.256 61.2424H334.609V63.5953H332.256V61.2424ZM332.256 63.5953H334.609V65.9483H332.256V63.5953ZM332.256 65.9483H334.609V68.3012H332.256V65.9483ZM332.256 68.3012H334.609V70.6541H332.256V68.3012ZM332.256 70.6541H334.609V73.0071H332.256V70.6541ZM376.971 49.4777H379.324V51.8306H376.971V49.4777ZM376.971 47.1247H379.324V49.4777H376.971V47.1247ZM376.971 44.7718H379.324V47.1247H376.971V44.7718ZM376.971 42.4188H379.324V44.7718H376.971V42.4188ZM376.971 40.0659H379.324V42.4188H376.971V40.0659ZM376.971 37.713H379.324V40.0659H376.971V37.713ZM376.971 35.36H379.324V37.713H376.971V35.36ZM376.971 33.0071H379.324V35.36H376.971V33.0071ZM374.618 33.0071H376.971V35.36H374.618V33.0071ZM374.618 30.6541H376.971V33.0071H374.618V30.6541ZM374.618 28.3012H376.971V30.6541H374.618V28.3012ZM372.265 28.3012H374.618V30.6541H372.265V28.3012ZM372.265 30.6541H374.618V33.0071H372.265V30.6541ZM372.265 33.0071H374.618V35.36H372.265V33.0071ZM372.265 35.36H374.618V37.713H372.265V35.36ZM372.265 37.713H374.618V40.0659H372.265V37.713ZM372.265 40.0659H374.618V42.4188H372.265V40.0659ZM372.265 42.4188H374.618V44.7718H372.265V42.4188ZM372.265 44.7718H374.618V47.1247H372.265V44.7718ZM372.265 47.1247H374.618V49.4777H372.265V47.1247ZM372.265 49.4777H374.618V51.8306H372.265V49.4777ZM372.265 51.8306H374.618V54.1836H372.265V51.8306ZM372.265 54.1836H374.618V56.5365H372.265V54.1836ZM374.618 51.8306H376.971V54.1836H374.618V51.8306ZM374.618 49.4777H376.971V51.8306H374.618V49.4777ZM374.618 47.1247H376.971V49.4777H374.618V47.1247ZM374.618 44.7718H376.971V47.1247H374.618V44.7718ZM374.618 42.4188H376.971V44.7718H374.618V42.4188ZM374.618 40.0659H376.971V42.4188H374.618V40.0659ZM374.618 37.713H376.971V40.0659H374.618V37.713ZM374.618 35.36H376.971V37.713H374.618V35.36ZM369.912 35.36H372.265V37.713H369.912V35.36ZM367.559 35.36H369.912V37.713H367.559V35.36ZM369.912 33.0071H372.265V35.36H369.912V33.0071ZM367.559 33.0071H369.912V35.36H367.559V33.0071ZM365.206 33.0071H367.559V35.36H365.206V33.0071ZM362.853 33.0071H365.206V35.36H362.853V33.0071ZM360.5 33.0071H362.853V35.36H360.5V33.0071ZM358.148 33.0071H360.5V35.36H358.148V33.0071ZM355.795 33.0071H358.148V35.36H355.795V33.0071ZM355.795 35.36H358.148V37.713H355.795V35.36ZM355.795 37.713H358.148V40.0659H355.795V37.713ZM355.795 40.0659H358.148V42.4188H355.795V40.0659ZM355.795 42.4188H358.148V44.7718H355.795V42.4188ZM355.795 44.7718H358.148V47.1247H355.795V44.7718ZM355.795 47.1247H358.148V49.4777H355.795V47.1247ZM355.795 49.4777H358.148V51.8306H355.795V49.4777ZM358.148 49.4777H360.5V51.8306H358.148V49.4777ZM358.148 51.8306H360.5V54.1836H358.148V51.8306ZM360.5 51.8306H362.853V54.1836H360.5V51.8306ZM362.853 51.8306H365.206V54.1836H362.853V51.8306ZM365.206 51.8306H367.559V54.1836H365.206V51.8306ZM367.559 51.8306H369.912V54.1836H367.559V51.8306ZM367.559 49.4777H369.912V51.8306H367.559V49.4777ZM365.206 49.4777H367.559V51.8306H365.206V49.4777ZM362.853 49.4777H365.206V51.8306H362.853V49.4777ZM360.5 49.4777H362.853V51.8306H360.5V49.4777ZM369.912 49.4777H372.265V51.8306H369.912V49.4777ZM369.912 47.1247H372.265V49.4777H369.912V47.1247ZM367.559 47.1247H369.912V49.4777H367.559V47.1247ZM369.912 44.7718H372.265V47.1247H369.912V44.7718ZM369.912 37.713H372.265V40.0659H369.912V37.713ZM369.912 40.0659H372.265V42.4188H369.912V40.0659ZM369.912 42.4188H372.265V44.7718H369.912V42.4188ZM369.912 51.8306H372.265V54.1836H369.912V51.8306ZM369.912 54.1836H372.265V56.5365H369.912V54.1836ZM369.912 56.5365H372.265V58.8894H369.912V56.5365ZM367.559 56.5365H369.912V58.8894H367.559V56.5365ZM365.206 56.5365H367.559V58.8894H365.206V56.5365ZM362.853 56.5365H365.206V58.8894H362.853V56.5365ZM360.5 56.5365H362.853V58.8894H360.5V56.5365ZM360.5 54.1836H362.853V56.5365H360.5V54.1836ZM358.148 54.1836H360.5V56.5365H358.148V54.1836ZM358.148 56.5365H360.5V58.8894H358.148V56.5365ZM362.853 54.1836H365.206V56.5365H362.853V54.1836ZM365.206 54.1836H367.559V56.5365H365.206V54.1836ZM367.559 54.1836H369.912V56.5365H367.559V54.1836ZM369.912 25.9483H372.265V28.3012H369.912V25.9483ZM369.912 28.3012H372.265V30.6541H369.912V28.3012ZM369.912 30.6541H372.265V33.0071H369.912V30.6541ZM367.559 30.6541H369.912V33.0071H367.559V30.6541ZM367.559 28.3012H369.912V30.6541H367.559V28.3012ZM367.559 25.9483H369.912V28.3012H367.559V25.9483ZM365.206 25.9483H367.559V28.3012H365.206V25.9483ZM362.853 25.9483H365.206V28.3012H362.853V25.9483ZM360.5 25.9483H362.853V28.3012H360.5V25.9483ZM358.148 25.9483H360.5V28.3012H358.148V25.9483ZM355.795 25.9483H358.148V28.3012H355.795V25.9483ZM353.442 25.9483H355.795V28.3012H353.442V25.9483ZM351.089 25.9483H353.442V28.3012H351.089V25.9483ZM348.736 25.9483H351.089V28.3012H348.736V25.9483ZM348.736 28.3012H351.089V30.6541H348.736V28.3012ZM348.736 30.6541H351.089V33.0071H348.736V30.6541ZM348.736 33.0071H351.089V35.36H348.736V33.0071ZM351.089 33.0071H353.442V35.36H351.089V33.0071ZM351.089 30.6541H353.442V33.0071H351.089V30.6541ZM353.442 30.6541H355.795V33.0071H353.442V30.6541ZM355.795 30.6541H358.148V33.0071H355.795V30.6541ZM358.148 30.6541H360.5V33.0071H358.148V30.6541ZM360.5 30.6541H362.853V33.0071H360.5V30.6541ZM362.853 30.6541H365.206V33.0071H362.853V30.6541ZM365.206 30.6541H367.559V33.0071H365.206V30.6541ZM365.206 28.3012H367.559V30.6541H365.206V28.3012ZM362.853 28.3012H365.206V30.6541H362.853V28.3012ZM360.5 28.3012H362.853V30.6541H360.5V28.3012ZM358.148 28.3012H360.5V30.6541H358.148V28.3012ZM355.795 28.3012H358.148V30.6541H355.795V28.3012ZM353.442 28.3012H355.795V30.6541H353.442V28.3012ZM351.089 35.36H353.442V37.713H351.089V35.36ZM351.089 37.713H353.442V40.0659H351.089V37.713ZM351.089 28.3012H353.442V30.6541H351.089V28.3012ZM353.442 33.0071H355.795V35.36H353.442V33.0071ZM353.442 35.36H355.795V37.713H353.442V35.36ZM353.442 37.713H355.795V40.0659H353.442V37.713ZM353.442 40.0659H355.795V42.4188H353.442V40.0659ZM353.442 42.4188H355.795V44.7718H353.442V42.4188ZM353.442 44.7718H355.795V47.1247H353.442V44.7718ZM353.442 47.1247H355.795V49.4777H353.442V47.1247ZM353.442 49.4777H355.795V51.8306H353.442V49.4777ZM351.089 49.4777H353.442V51.8306H351.089V49.4777ZM351.089 47.1247H353.442V49.4777H351.089V47.1247ZM351.089 44.7718H353.442V47.1247H351.089V44.7718ZM351.089 42.4188H353.442V44.7718H351.089V42.4188ZM348.736 40.0659H351.089V42.4188H348.736V40.0659ZM348.736 37.713H351.089V40.0659H348.736V37.713ZM348.736 35.36H351.089V37.713H348.736V35.36ZM348.736 42.4188H351.089V44.7718H348.736V42.4188ZM348.736 44.7718H351.089V47.1247H348.736V44.7718ZM351.089 40.0659H353.442V42.4188H351.089V40.0659ZM348.736 47.1247H351.089V49.4777H348.736V47.1247ZM348.736 49.4777H351.089V51.8306H348.736V49.4777ZM348.736 51.8306H351.089V54.1836H348.736V51.8306ZM348.736 54.1836H351.089V56.5365H348.736V54.1836ZM351.089 54.1836H353.442V56.5365H351.089V54.1836ZM353.442 54.1836H355.795V56.5365H353.442V54.1836ZM355.795 54.1836H358.148V56.5365H355.795V54.1836ZM355.795 56.5365H358.148V58.8894H355.795V56.5365ZM353.442 56.5365H355.795V58.8894H353.442V56.5365ZM351.089 56.5365H353.442V58.8894H351.089V56.5365ZM348.736 56.5365H351.089V58.8894H348.736V56.5365ZM351.089 51.8306H353.442V54.1836H351.089V51.8306ZM353.442 51.8306H355.795V54.1836H353.442V51.8306ZM355.795 51.8306H358.148V54.1836H355.795V51.8306ZM348.736 58.8894H351.089V61.2424H348.736V58.8894ZM348.736 61.2424H351.089V63.5953H348.736V61.2424ZM348.736 63.5953H351.089V65.9483H348.736V63.5953ZM348.736 65.9483H351.089V68.3012H348.736V65.9483ZM348.736 68.3012H351.089V70.6541H348.736V68.3012ZM348.736 70.6541H351.089V73.0071H348.736V70.6541ZM351.089 70.6541H353.442V73.0071H351.089V70.6541ZM353.442 70.6541H355.795V73.0071H353.442V70.6541ZM355.795 70.6541H358.148V73.0071H355.795V70.6541ZM355.795 68.3012H358.148V70.6541H355.795V68.3012ZM355.795 65.9483H358.148V68.3012H355.795V65.9483ZM355.795 63.5953H358.148V65.9483H355.795V63.5953ZM355.795 61.2424H358.148V63.5953H355.795V61.2424ZM355.795 58.8894H358.148V61.2424H355.795V58.8894ZM353.442 58.8894H355.795V61.2424H353.442V58.8894ZM351.089 58.8894H353.442V61.2424H351.089V58.8894ZM351.089 61.2424H353.442V63.5953H351.089V61.2424ZM351.089 63.5953H353.442V65.9483H351.089V63.5953ZM351.089 65.9483H353.442V68.3012H351.089V65.9483ZM351.089 68.3012H353.442V70.6541H351.089V68.3012ZM353.442 68.3012H355.795V70.6541H353.442V68.3012ZM353.442 65.9483H355.795V68.3012H353.442V65.9483ZM353.442 63.5953H355.795V65.9483H353.442V63.5953ZM353.442 61.2424H355.795V63.5953H353.442V61.2424ZM376.971 61.2424H379.324V63.5953H376.971V61.2424ZM376.971 63.5953H379.324V65.9483H376.971V63.5953ZM376.971 65.9483H379.324V68.3012H376.971V65.9483ZM376.971 68.3012H379.324V70.6541H376.971V68.3012ZM376.971 70.6541H379.324V73.0071H376.971V70.6541ZM374.618 70.6541H376.971V73.0071H374.618V70.6541ZM372.265 70.6541H374.618V73.0071H372.265V70.6541ZM369.912 70.6541H372.265V73.0071H369.912V70.6541ZM369.912 68.3012H372.265V70.6541H369.912V68.3012ZM369.912 65.9483H372.265V68.3012H369.912V65.9483ZM369.912 63.5953H372.265V65.9483H369.912V63.5953ZM372.265 63.5953H374.618V65.9483H372.265V63.5953ZM374.618 61.2424H376.971V63.5953H374.618V61.2424ZM374.618 63.5953H376.971V65.9483H374.618V63.5953ZM374.618 65.9483H376.971V68.3012H374.618V65.9483ZM372.265 65.9483H374.618V68.3012H372.265V65.9483ZM372.265 68.3012H374.618V70.6541H372.265V68.3012ZM374.618 68.3012H376.971V70.6541H374.618V68.3012ZM372.265 61.2424H374.618V63.5953H372.265V61.2424ZM369.912 61.2424H372.265V63.5953H369.912V61.2424ZM369.912 58.8894H372.265V61.2424H369.912V58.8894ZM372.265 58.8894H374.618V61.2424H372.265V58.8894ZM376.971 58.8894H379.324V61.2424H376.971V58.8894ZM374.618 58.8894H376.971V61.2424H374.618V58.8894ZM374.618 56.5365H376.971V58.8894H374.618V56.5365ZM372.265 56.5365H374.618V58.8894H372.265V56.5365ZM365.206 58.8894H367.559V61.2424H365.206V58.8894ZM367.559 58.8894H369.912V61.2424H367.559V58.8894ZM367.559 61.2424H369.912V63.5953H367.559V61.2424Z" fill="white"/>
</g>
<defs>
<filter id="filter0_d_448_959" x="2.46667" y="0" width="443.867" height="121" filterUnits="userSpaceOnUse" color-interpolation-filters="sRGB">
<feFlood flood-opacity="0" result="BackgroundImageFix"/>
<feColorMatrix in="SourceAlpha" type="matrix" values="0 0 0 0 0 0 0 0 0 0 0 0 0 0 0 0 0 0 127 0" result="hardAlpha"/>
<feOffset dy="14"/>
<feGaussianBlur stdDeviation="5.5"/>
<feComposite in2="hardAlpha" operator="out"/>
<feColorMatrix type="matrix" values="0 0 0 0 0 0 0 0 0 0 0 0 0 0 0 0 0 0 0.25 0"/>
<feBlend mode="normal" in2="BackgroundImageFix" result="effect1_dropShadow_448_959"/>
<feBlend mode="normal" in="SourceGraphic" in2="effect1_dropShadow_448_959" result="shape"/>
</filter>
<filter id="filter1_d_448_959" x="9.46667" y="0" width="429.867" height="104" filterUnits="userSpaceOnUse" color-interpolation-filters="sRGB">
<feFlood flood-opacity="0" result="BackgroundImageFix"/>
<feColorMatrix in="SourceAlpha" type="matrix" values="0 0 0 0 0 0 0 0 0 0 0 0 0 0 0 0 0 0 127 0" result="hardAlpha"/>
<feOffset dy="4"/>
<feGaussianBlur stdDeviation="2"/>
<feComposite in2="hardAlpha" operator="out"/>
<feColorMatrix type="matrix" values="0 0 0 0 0 0 0 0 0 0 0 0 0 0 0 0 0 0 0.25 0"/>
<feBlend mode="normal" in2="BackgroundImageFix" result="effect1_dropShadow_448_959"/>
<feBlend mode="normal" in="SourceGraphic" in2="effect1_dropShadow_448_959" result="shape"/>
</filter>
</defs>
</svg>
